<?xml version="1.0" encoding="utf-8"?>
<!-- Generator: Adobe Illustrator 28.2.0, SVG Export Plug-In . SVG Version: 6.00 Build 0)  -->
<svg version="1.1" xmlns="http://www.w3.org/2000/svg" xmlns:xlink="http://www.w3.org/1999/xlink" x="0px" y="0px"
	 viewBox="0 0 1920 1080" style="enable-background:new 0 0 1920 1080;" xml:space="preserve">
<style type="text/css">
	.st0{display:none;}
	.st1{display:inline;}
	.st2{display:inline;fill:#E6E7E8;}
	.st3{fill:#DC8633;}
	.st4{font-family:'BrownLLTT-Bold';}
	.st5{font-size:14px;}
	.st6{display:inline;fill:#DC8633;}
	.st7{fill:#FFCE51;}
	.st8{fill:#487A7C;}
	.st9{fill:#182852;}
	.st10{fill:#A5825A;}
	.st11{display:inline;fill:#A5825A;}
	.st12{fill:#A61E2F;}
	.st13{display:inline;fill:#A61E2F;}
	.st14{fill:#FFFFFF;}
	.st15{fill:#929497;}
	.st16{fill:#A6A8AB;}
</style>
<g id="W" class="st0">
	<g class="st1">
		
			<image style="overflow:visible;" width="1075" height="965" xlink:href="92388322.jpg"  transform="matrix(1.0415 0 0 -1.0421 409.0465 1075.8977)">
		</image>
	</g>
</g>
<g id="Wheels_Unchopped" class="st0">
	<path class="st2" d="M759.05,235.36l32.68,47.93c24.42-16.56,51-29.38,79.04-38.13l-17.1-55.44
		C820.1,200.17,788.27,215.52,759.05,235.36z"/>
	<path class="st2" d="M790.08,284.42l-32.68-47.93c-29.02,19.94-54.91,43.98-76.99,71.46l45.35,36.16
		C744.21,321.16,765.84,301.09,790.08,284.42z"/>
	<path class="st2" d="M679.17,309.51c-21.93,27.62-39.62,58.2-52.58,90.94l54,21.19c10.85-27.34,25.62-52.89,43.93-75.97
		L679.17,309.51z"/>
	<path class="st2" d="M625.85,402.31c-12.76,32.76-20.6,67.21-23.31,102.43l57.84,4.33c2.28-29.42,8.82-58.19,19.47-85.57
		L625.85,402.31z"/>
	<path class="st2" d="M610.18,611.49l56.56-12.91c-4.83-21.57-7.27-43.77-7.27-66.02c0-7.08,0.26-14.31,0.77-21.5l-57.84-4.33
		c-0.62,8.64-0.93,17.32-0.93,25.83C601.47,559.18,604.4,585.72,610.18,611.49z"/>
	<path class="st2" d="M699.27,682.21c-14.69-25.58-25.48-53.05-32.08-81.68l-56.56,12.91c7.89,34.28,20.81,67.17,38.41,97.78
		L699.27,682.21z"/>
	<path class="st2" d="M715.57,795.03l39.45-42.52c-21.54-20.13-39.95-43.2-54.75-68.57l-50.24,29.01
		C667.73,743.33,689.77,770.94,715.57,795.03z"/>
	<path class="st2" d="M905.97,887.44l8.65-57.36c-29.12-4.45-57.33-13.15-83.87-25.85l-25.17,52.27
		C837.34,871.72,871.1,882.13,905.97,887.44z"/>
	<path class="st2" d="M960.47,833.56c-14.66,0-29.42-1.07-43.88-3.19l-8.65,57.36c17.31,2.54,34.98,3.83,52.52,3.83
		c17.56,0,35.23-1.29,52.52-3.82l-8.65-57.37C989.87,832.49,975.11,833.56,960.47,833.56z"/>
	<path class="st2" d="M1091.99,803.35l25.17,52.27c31.61-15.36,60.79-35.29,86.74-59.24l-39.45-42.52
		C1142.76,773.87,1118.39,790.51,1091.99,803.35z"/>
	<path class="st2" d="M1165.91,752.51l39.45,42.52c25.78-24.06,47.82-51.66,65.54-82.08l-50.24-29.01
		C1205.84,709.35,1187.43,732.41,1165.91,752.51z"/>
	<path class="st2" d="M1253.75,600.53c-6.62,28.67-17.41,56.14-32.08,81.68l50.24,29.01c17.58-30.57,30.49-63.45,38.4-97.78
		L1253.75,600.53z"/>
	<path class="st2" d="M1163.53,236.5l-32.67,47.92c24.24,16.68,45.87,36.76,64.3,59.7l45.35-36.16
		C1218.45,280.49,1192.56,256.45,1163.53,236.5z"/>
	<path class="st2" d="M1048.25,244.58l17.1-55.44c-33.57-10.24-68.51-15.49-103.88-15.58v58
		C991.02,231.66,1020.2,236.04,1048.25,244.58z"/>
	<path class="st2" d="M1129.21,283.3l32.67-47.92c-29.18-19.82-61.01-35.17-94.62-45.63l-17.1,55.44
		C1078.24,253.93,1104.82,266.75,1129.21,283.3z"/>
	<path class="st2" d="M1294.35,400.45c-12.94-32.68-30.63-63.26-52.59-90.93l-45.35,36.16c18.33,23.12,33.11,48.66,43.93,75.96
		L1294.35,400.45z"/>
	<path class="st2" d="M1318.4,504.74c-2.7-35.17-10.54-69.62-23.32-102.43l-54,21.2c10.66,27.42,17.21,56.19,19.48,85.56
		L1318.4,504.74z"/>
	<path class="st2" d="M1318.55,506.73l-57.84,4.33c0.51,7.18,0.76,14.41,0.76,21.5c0,22.24-2.45,44.44-7.28,66.01l56.56,12.91
		c5.79-25.78,8.72-52.33,8.72-78.92C1319.47,524,1319.16,515.31,1318.55,506.73z"/>
	<path class="st2" d="M1006.32,830.08l8.65,57.37c34.81-5.3,68.57-15.71,100.39-30.95l-25.17-52.27
		C1063.6,816.94,1035.4,825.64,1006.32,830.08z"/>
	<path class="st2" d="M803.78,855.63l25.17-52.27c-26.42-12.86-50.79-29.51-72.46-49.49l-39.45,42.52
		C742.96,820.33,772.14,840.25,803.78,855.63z"/>
	<path class="st2" d="M959.47,231.56v-58c-35.39,0.1-70.33,5.33-103.89,15.57l17.1,55.44C900.73,236.04,929.92,231.66,959.47,231.56
		z"/>
	<path class="st2" d="M959.47,291.56v-58c-29.35,0.1-58.34,4.44-86.2,12.92l17.1,55.44C912.71,295.14,935.94,291.66,959.47,291.56z"
		/>
	<path class="st2" d="M792.86,284.94l32.67,47.92c19.45-13.17,40.61-23.38,62.93-30.35l-17.1-55.44
		C843.51,255.76,817.11,268.49,792.86,284.94z"/>
	<path class="st2" d="M823.88,333.99l-32.67-47.92c-24.07,16.56-45.55,36.5-63.88,59.29l45.35,36.16
		C787.38,363.26,804.6,347.28,823.88,333.99z"/>
	<path class="st2" d="M726.08,346.92c-18.18,22.92-32.86,48.3-43.63,75.45l54,21.19c8.65-21.76,20.41-42.1,34.97-60.48
		L726.08,346.92z"/>
	<path class="st2" d="M681.72,424.24c-10.58,27.19-17.08,55.77-19.34,84.99l57.84,4.33c1.83-23.42,7.04-46.32,15.5-68.13
		L681.72,424.24z"/>
	<path class="st2" d="M751.24,652.21c-11.67-20.37-20.26-42.24-25.55-65.03l-56.56,12.91c6.56,28.44,17.28,55.72,31.87,81.13
		L751.24,652.21z"/>
	<path class="st2" d="M756.38,751.05l39.45-42.51c-17.14-16.04-31.79-34.4-43.59-54.59l-50.23,29
		C716.7,708.15,734.99,731.05,756.38,751.05z"/>
	<path class="st2" d="M829.82,801.56l25.17-52.27c-21.03-10.26-40.43-23.51-57.69-39.4l-39.45,42.51
		C779.37,772.26,803.57,788.79,829.82,801.56z"/>
	<path class="st2" d="M914.91,828.1l8.65-57.37c-23.2-3.57-45.66-10.49-66.77-20.57l-25.17,52.27
		C857.97,815.05,885.99,823.68,914.91,828.1z"/>
	<path class="st2" d="M997.38,770.74l8.65,57.36c28.88-4.41,56.89-13.05,83.29-25.68l-25.17-52.26
		C1042.98,760.26,1020.53,767.19,997.38,770.74z"/>
	<path class="st2" d="M1065.95,749.29l25.17,52.26c26.22-12.76,50.43-29.29,71.97-49.15l-39.45-42.51
		C1106.36,725.8,1086.96,739.05,1065.95,749.29z"/>
	<path class="st2" d="M1125.11,708.53l39.45,42.51c21.37-19.97,39.66-42.87,54.38-68.11l-50.23-29
		C1156.88,674.16,1142.22,692.51,1125.11,708.53z"/>
	<path class="st2" d="M1095.4,332.88l32.68-47.93c-24.22-16.43-50.62-29.17-78.51-37.86l-17.1,55.44
		C1054.81,309.51,1075.98,319.72,1095.4,332.88z"/>
	<path class="st2" d="M1030.56,301.93l17.1-55.44c-27.86-8.48-56.84-12.83-86.19-12.93v58
		C984.99,291.66,1008.23,295.15,1030.56,301.93z"/>
	<path class="st2" d="M1129.73,286.08L1097.05,334c19.3,13.3,36.51,29.28,51.2,47.52l45.34-36.16
		C1175.29,322.59,1153.81,302.64,1129.73,286.08z"/>
	<path class="st2" d="M1238.48,422.38c-10.75-27.11-25.43-52.48-43.64-75.44l-45.34,36.16c14.58,18.42,26.34,38.75,34.98,60.48
		L1238.48,422.38z"/>
	<path class="st2" d="M1258.56,509.22c-2.25-29.17-8.76-57.75-19.35-84.98l-54,21.19c8.47,21.83,13.69,44.74,15.51,68.12
		L1258.56,509.22z"/>
	<path class="st2" d="M1258.71,511.22l-57.84,4.33c0.4,5.69,0.6,11.41,0.6,17.01c0,17.74-1.95,35.45-5.79,52.66l56.56,12.91
		c4.8-21.42,7.23-43.48,7.23-65.57C1259.47,525.52,1259.21,518.34,1258.71,511.22z"/>
	<path class="st2" d="M1195.24,587.17c-5.29,22.82-13.88,44.69-25.54,65.03l50.23,29c14.57-25.37,25.29-52.65,31.87-81.13
		L1195.24,587.17z"/>
	<path class="st2" d="M960.47,773.56c-11.62,0-23.37-0.85-34.93-2.53l-8.65,57.37c14.36,2.1,29.02,3.16,43.58,3.16
		c14.54,0,29.2-1.06,43.58-3.16l-8.64-57.36C983.87,772.71,972.12,773.56,960.47,773.56z"/>
	<path class="st2" d="M725.25,585.22c-3.84-17.21-5.78-34.92-5.78-52.66c0-5.61,0.2-11.33,0.6-17.01l-57.84-4.33
		c-0.5,7.14-0.76,14.31-0.76,21.35c0,22.09,2.43,44.15,7.22,65.57L725.25,585.22z"/>
	<path class="st2" d="M826.66,334.52l32.67,47.92c14.48-9.78,30.22-17.37,46.82-22.58l-17.1-55.44
		C866.92,311.34,845.94,321.46,826.66,334.52z"/>
	<path class="st2" d="M857.68,383.57L825,335.65c-19.12,13.17-36.19,29.02-50.77,47.12l45.35,36.16
		C830.54,405.36,843.35,393.48,857.68,383.57z"/>
	<path class="st2" d="M772.99,384.33c-14.44,18.23-26.1,38.4-34.68,59.97l54,21.19c6.46-16.18,15.21-31.31,26.02-45L772.99,384.33z"
		/>
	<path class="st2" d="M737.58,446.16c-8.39,21.61-13.56,44.33-15.37,67.54l57.84,4.33c1.39-17.42,5.26-34.46,11.53-50.68
		L737.58,446.16z"/>
	<path class="st2" d="M783.76,571.87c-2.85-12.85-4.29-26.07-4.29-39.31c0-4.13,0.15-8.34,0.43-12.53l-57.84-4.33
		c-0.39,5.64-0.59,11.31-0.59,16.86c0,17.59,1.93,35.15,5.73,52.22L783.76,571.87z"/>
	<path class="st2" d="M803.2,622.2c-8.66-15.17-15.05-31.43-19.01-48.38l-56.56,12.91c5.24,22.6,13.75,44.28,25.33,64.48
		L803.2,622.2z"/>
	<path class="st2" d="M797.19,707.07l39.46-42.52c-12.75-11.97-23.66-25.62-32.44-40.61l-50.23,29
		C765.67,672.96,780.2,691.16,797.19,707.07z"/>
	<path class="st2" d="M988.44,711.41l8.65,57.36c22.95-3.53,45.21-10.39,66.2-20.41l-25.17-52.26
		C1022.35,703.59,1005.65,708.74,988.44,711.41z"/>
	<path class="st2" d="M1182.62,444.3c-8.56-21.54-20.23-41.7-34.68-59.96l-45.34,36.16c10.83,13.72,19.58,28.84,26.02,44.99
		L1182.62,444.3z"/>
	<path class="st2" d="M1012.87,359.28l17.1-55.44c-22.15-6.73-45.18-10.18-68.5-10.28v58
		C978.97,351.66,996.25,354.25,1012.87,359.28z"/>
	<path class="st2" d="M1061.6,382.45l32.67-47.92c-19.26-13.04-40.24-23.17-62.39-30.1l-17.1,55.44
		C1031.4,365.09,1047.14,372.68,1061.6,382.45z"/>
	<path class="st2" d="M1095.93,335.66l-32.67,47.92c14.34,9.92,27.15,21.8,38.09,35.36l45.34-36.16
		C1132.13,364.69,1115.06,348.85,1095.93,335.66z"/>
	<path class="st2" d="M1198.73,513.7c-1.81-23.18-6.98-45.9-15.38-67.54l-54,21.19c6.28,16.25,10.16,33.29,11.54,50.68
		L1198.73,513.7z"/>
	<path class="st2" d="M1198.88,515.7l-57.84,4.33c0.29,4.19,0.43,8.4,0.43,12.53c0,13.2-1.45,26.42-4.3,39.3l56.57,12.91
		c3.81-17.06,5.73-34.63,5.73-52.22C1199.47,527,1199.27,521.34,1198.88,515.7z"/>
	<path class="st2" d="M1136.72,573.82c-3.96,17-10.35,33.27-18.99,48.39l50.23,29c11.56-20.17,20.08-41.85,25.33-64.48
		L1136.72,573.82z"/>
	<path class="st2" d="M1084.3,664.55l39.45,42.51c16.97-15.88,31.5-34.08,43.21-54.13l-50.23-29
		C1107.92,638.96,1097.02,652.62,1084.3,664.55z"/>
	<path class="st2" d="M1039.91,695.22l25.17,52.26c20.83-10.16,40.07-23.29,57.2-39.06l-39.45-42.51
		C1069.96,677.73,1055.53,687.58,1039.91,695.22z"/>
	<path class="st2" d="M934.48,711.7l-8.65,57.36c11.46,1.67,23.11,2.51,34.63,2.51c11.56,0,23.2-0.84,34.64-2.5l-8.65-57.36
		C969.33,714.17,951.72,714.18,934.48,711.7z"/>
	<path class="st2" d="M923.86,768.76l8.65-57.36c-17.25-2.68-33.96-7.83-49.67-15.31l-25.17,52.27
		C878.59,758.36,900.85,765.22,923.86,768.76z"/>
	<path class="st2" d="M855.85,747.5l25.17-52.27c-15.63-7.65-30.05-17.51-42.92-29.32l-39.46,42.52
		C815.77,724.19,835,737.33,855.85,747.5z"/>
	<path class="st2" d="M959.47,351.57v-58c-23.33,0.1-46.37,3.55-68.51,10.27l17.1,55.44C924.68,354.25,941.97,351.66,959.47,351.57z
		"/>
</g>
<g id="Text" class="st0">
	<text transform="matrix(0.9888 -0.149 0.149 0.9888 874.4975 127.4912)" class="st1"><tspan x="0" y="0" class="st3 st4 st5">Quality </tspan><tspan x="-6.3" y="16.8" class="st3 st4 st5">&amp; Process </tspan><tspan x="-19.72" y="33.6" class="st3 st4 st5">Management</tspan></text>
	<text transform="matrix(0.901 -0.4339 0.4339 0.901 754.3657 210.3369)" class="st6 st4 st5">Sustainability</text>
	<text transform="matrix(0.733 -0.6802 0.6802 0.733 674.304 257.0732)" class="st1"><tspan x="0" y="0" class="st3 st4 st5">Health </tspan><tspan x="-5.68" y="16.8" class="st3 st4 st5">&amp; Safety</tspan></text>
	<text transform="matrix(0.5 -0.866 0.866 0.5 583.9059 358.0646)" class="st1"><tspan x="0" y="0" class="st7 st4 st5">Analytics &amp;</tspan><tspan x="-2.46" y="16.8" class="st7 st4 st5">Stakeholder</tspan><tspan x="-7.11" y="33.6" class="st7 st4 st5">Management</tspan></text>
	<text transform="matrix(0.2225 -0.9749 0.9749 0.2225 566.6917 475.6416)" class="st1"><tspan x="0" y="0" class="st7 st4 st5">Inside out </tspan><tspan x="-16.08" y="16.8" class="st7 st4 st5">Benchmarking</tspan></text>
	<text transform="matrix(-0.0747 -0.9972 0.9972 -0.0747 568.8386 613.7477)" class="st1"><tspan x="0" y="0" class="st7 st4 st5">Organizational </tspan><tspan x="-0.39" y="16.8" class="st7 st4 st5">Transformation</tspan></text>
	<text transform="matrix(0.3653 0.9309 -0.9309 0.3653 582.605 632.215)" class="st1"><tspan x="0" y="0" class="st8 st4 st5">AI &amp;  Machine </tspan><tspan x="15.41" y="16.8" class="st8 st4 st5">Learning</tspan></text>
	<text transform="matrix(0.6235 0.7818 -0.7818 0.6235 636.7475 749.2302)" class="st1"><tspan x="0" y="0" class="st8 st4 st5">Industrial </tspan><tspan x="-17.38" y="16.8" class="st8 st4 st5">4.0 Lighthouse</tspan></text>
	<text transform="matrix(0.8262 0.5633 -0.5633 0.8262 722.7635 840.2712)" class="st1"><tspan x="0" y="0" class="st8 st4 st5">Digital </tspan><tspan x="-16.91" y="16.8" class="st8 st4 st5">Engineering</tspan><tspan x="-15.02" y="33.6" class="st8 st4 st5">&amp; Analytics</tspan></text>
	<text transform="matrix(0.9556 0.2948 -0.2948 0.9556 822.8503 896.2792)" class="st1"><tspan x="0" y="0" class="st9 st4 st5">Market </tspan><tspan x="-15.31" y="16.8" class="st9 st4 st5">Forecasting </tspan><tspan x="-0.98" y="33.6" class="st9 st4 st5">&amp; S&amp;OP</tspan></text>
	<text transform="matrix(1 0 0 1 927.3315 920.7598)" class="st1"><tspan x="0" y="0" class="st9 st4 st5">Customer </tspan><tspan x="-19.74" y="16.8" class="st9 st4 st5">Collaboration &amp; </tspan><tspan x="-35.9" y="33.6" class="st9 st4 st5">Business Partnership</tspan></text>
	<text transform="matrix(0.9556 -0.2947 0.2947 0.9556 1056.424 909.2303)" class="st1"><tspan x="0" y="0" class="st9 st4 st5">Value</tspan><tspan x="-11.92" y="16.8" class="st9 st4 st5">Creation </tspan></text>
	<text transform="matrix(0.8262 -0.5633 0.5633 0.8262 1155.2366 869.6301)" class="st1"><tspan x="0" y="0" class="st10 st4 st5">Demand </tspan><tspan x="-0.56" y="16.8" class="st10 st4 st5">&amp; Supply</tspan><tspan x="-1.06" y="33.6" class="st10 st4 st5">Planning</tspan></text>
	<text transform="matrix(0.6235 -0.7818 0.7818 0.6235 1254.934 785.8455)" class="st11 st4 st5">TPM</text>
	<text transform="matrix(0.3653 -0.9309 0.9309 0.3653 1309.2937 706.388)" class="st1"><tspan x="0" y="0" class="st10 st4 st5">Life Cycle </tspan><tspan x="-10.77" y="16.8" class="st10 st4 st5">Management</tspan></text>
	<text transform="matrix(-0.0747 0.9972 -0.9972 -0.0747 1358.8402 522.4536)" class="st1"><tspan x="0" y="0" class="st12 st4 st5">Operational</tspan><tspan x="5.74" y="16.8" class="st12 st4 st5">Excellence</tspan></text>
	<text transform="matrix(0.2225 0.9749 -0.9749 0.2225 1338.6273 407.3223)" class="st1"><tspan x="0" y="0" class="st12 st4 st5">Production </tspan><tspan x="-6.37" y="16.8" class="st12 st4 st5">Management</tspan></text>
	<text transform="matrix(0.5 0.866 -0.866 0.5 1269.7723 308.8535)" class="st13 st4 st5">Engineering</text>
	<text transform="matrix(0.733 0.6802 -0.6802 0.733 1209.4907 222.5899)" class="st1"><tspan x="0" y="0" class="st12 st4 st5">Network</tspan><tspan x="6.05" y="16.8" class="st12 st4 st5">Design</tspan></text>
	<text transform="matrix(0.901 0.4339 -0.4339 0.901 1109.9727 164.3521)" class="st1"><tspan x="0" y="0" class="st12 st4 st5">Freight </tspan><tspan x="-19.24" y="16.8" class="st12 st4 st5">Management</tspan></text>
	<text transform="matrix(0.9888 0.149 -0.149 0.9888 983.1852 134.9057)" class="st1"><tspan x="0" y="0" class="st12 st4 st5">Warehouse</tspan><tspan x="-7.52" y="16.8" class="st12 st4 st5">Management</tspan></text>
</g>
<g id="Center">
	<path class="st3" d="M907.7,361.47c-17.07,5.26-33.24,13.06-48.06,23.18c-14.5,9.9-27.44,21.85-38.48,35.52l138.32,110.31V353.57
		C941.83,353.66,924.42,356.32,907.7,361.47z"/>
	<path class="st7" d="M781.97,519.18c-0.33,4.47-0.5,8.97-0.5,13.38c0,13.09,1.43,26.16,4.24,38.86l172.52-39.38L819.9,421.74
		c-10.89,13.8-19.67,29.07-26.09,45.41C787.28,483.78,783.29,501.29,781.97,519.18z"/>
	<path class="st8" d="M838.74,663.76c12.9,11.97,27.41,21.95,43.16,29.66L958.67,534l-172.52,39.38
		c3.98,17.08,10.47,33.46,19.29,48.7C814.37,637.51,825.57,651.54,838.74,663.76z"/>
	<path class="st9" d="M960.47,534.87L883.7,694.29c15.84,7.54,32.69,12.68,50.09,15.28c17.68,2.65,35.8,2.63,53.36,0.01
		c17.36-2.59,34.21-7.74,50.09-15.29L960.47,534.87z"/>
	<path class="st12" d="M1138.97,519.18c-1.32-17.87-5.31-35.38-11.85-52.03c-6.53-16.62-15.52-32.16-26.72-46.19
		c-11.16-13.98-24.32-26.2-39.11-36.3c-14.8-10.12-30.97-17.92-48.06-23.18c-16.73-5.16-34.14-7.82-51.77-7.92v178.2l173.75,39.66
		c2.82-12.74,4.25-25.81,4.25-38.86C1139.47,528.15,1139.3,523.65,1138.97,519.18z"/>
	<path class="st10" d="M1082.21,663.77c13.13-12.18,24.33-26.21,33.29-41.7c8.79-15.19,15.27-31.57,19.27-48.7L962.27,534
		l76.77,159.42C1054.78,685.72,1069.3,675.75,1082.21,663.77z"/>
	<g>
		<path class="st14" d="M1009.36,464.95c0,0.83-0.15,1.6-0.44,2.3c-0.29,0.7-0.7,1.31-1.21,1.82c-0.51,0.51-1.12,0.91-1.81,1.2
			c-0.69,0.29-1.44,0.43-2.24,0.43s-1.55-0.14-2.24-0.43s-1.3-0.69-1.81-1.2c-0.51-0.51-0.92-1.12-1.21-1.82
			c-0.29-0.7-0.44-1.47-0.44-2.3s0.15-1.6,0.44-2.3c0.29-0.7,0.7-1.31,1.21-1.82c0.51-0.51,1.11-0.91,1.81-1.2
			c0.69-0.29,1.44-0.43,2.24-0.43s1.55,0.14,2.24,0.43c0.69,0.29,1.3,0.69,1.81,1.2s0.91,1.12,1.21,1.82
			C1009.21,463.35,1009.36,464.12,1009.36,464.95z M1000.13,464.95c0,0.53,0.09,1.03,0.26,1.5c0.18,0.46,0.42,0.87,0.73,1.22
			c0.31,0.35,0.68,0.62,1.12,0.82c0.44,0.2,0.91,0.3,1.42,0.3s0.99-0.1,1.42-0.3s0.81-0.48,1.12-0.82c0.31-0.35,0.55-0.75,0.73-1.22
			c0.18-0.46,0.26-0.96,0.26-1.5c0-0.52-0.09-1.02-0.26-1.49c-0.18-0.47-0.42-0.88-0.73-1.22s-0.68-0.62-1.12-0.82
			c-0.44-0.2-0.91-0.3-1.42-0.3s-0.99,0.1-1.42,0.3c-0.44,0.2-0.81,0.48-1.12,0.82c-0.31,0.35-0.55,0.75-0.73,1.22
			C1000.22,463.93,1000.13,464.43,1000.13,464.95z"/>
		<path class="st14" d="M1012.85,462.79v0.67c0.68-0.55,1.48-0.83,2.38-0.83c0.52,0,1.01,0.1,1.47,0.3c0.46,0.2,0.86,0.47,1.2,0.83
			c0.34,0.36,0.61,0.78,0.81,1.28c0.2,0.5,0.3,1.04,0.3,1.62c0,0.6-0.1,1.14-0.3,1.63s-0.47,0.92-0.82,1.28
			c-0.35,0.36-0.75,0.64-1.22,0.84c-0.46,0.2-0.96,0.3-1.48,0.3c-0.45,0-0.86-0.06-1.22-0.19c-0.37-0.13-0.69-0.3-0.97-0.51v4.14
			h-2.08v-11.36H1012.85z M1016.93,466.66c0-0.31-0.05-0.59-0.16-0.86c-0.11-0.26-0.25-0.49-0.43-0.68
			c-0.18-0.19-0.39-0.34-0.64-0.45c-0.25-0.11-0.51-0.16-0.78-0.16c-0.75,0-1.38,0.3-1.9,0.91v2.48c0.22,0.28,0.49,0.5,0.81,0.66
			c0.32,0.17,0.67,0.25,1.06,0.25c0.28,0,0.54-0.05,0.79-0.16c0.25-0.11,0.47-0.25,0.66-0.44c0.19-0.19,0.33-0.41,0.44-0.68
			S1016.93,466.98,1016.93,466.66z"/>
		<path class="st14" d="M1027.27,469.32c-0.39,0.45-0.88,0.79-1.45,1.03c-0.57,0.24-1.17,0.36-1.8,0.36c-0.58,0-1.11-0.1-1.59-0.29
			s-0.91-0.46-1.26-0.82s-0.64-0.78-0.84-1.27c-0.2-0.5-0.3-1.05-0.3-1.66c0-0.54,0.08-1.06,0.26-1.54
			c0.17-0.49,0.42-0.91,0.74-1.29c0.33-0.37,0.72-0.67,1.19-0.89s1-0.33,1.58-0.33c0.55,0,1.06,0.11,1.51,0.32
			c0.45,0.21,0.84,0.5,1.16,0.86c0.32,0.36,0.57,0.78,0.74,1.26s0.26,0.99,0.26,1.54c0,0.22-0.02,0.42-0.05,0.59h-5.39
			c0.03,0.28,0.11,0.52,0.22,0.74s0.27,0.4,0.46,0.55c0.19,0.15,0.4,0.27,0.65,0.35c0.25,0.08,0.51,0.12,0.78,0.12
			c0.45,0,0.84-0.09,1.18-0.28s0.61-0.38,0.81-0.57L1027.27,469.32z M1025.38,465.75c-0.03-0.37-0.19-0.7-0.46-0.98
			c-0.28-0.28-0.65-0.42-1.12-0.42c-0.48,0-0.87,0.14-1.18,0.42c-0.3,0.28-0.48,0.61-0.54,0.98H1025.38z"/>
		<path class="st14" d="M1033.83,464.61c-0.11-0.02-0.22-0.03-0.33-0.04c-0.11-0.01-0.24-0.01-0.39-0.01
			c-0.38,0-0.77,0.09-1.14,0.26c-0.38,0.18-0.69,0.46-0.94,0.84v4.88h-2.08v-7.76h2v0.78c0.23-0.29,0.55-0.51,0.94-0.66
			c0.39-0.15,0.83-0.23,1.31-0.23c0.21,0,0.42,0.02,0.62,0.06V464.61z"/>
		<path class="st14" d="M1042.49,462.79v7.76h-1.92v-0.67c-0.3,0.25-0.64,0.45-1.03,0.6c-0.39,0.15-0.83,0.23-1.32,0.23
			c-0.53,0-1.03-0.1-1.49-0.3c-0.46-0.2-0.86-0.48-1.21-0.84c-0.35-0.36-0.62-0.79-0.82-1.28c-0.2-0.49-0.3-1.03-0.3-1.63
			c0-0.59,0.1-1.13,0.3-1.62c0.2-0.5,0.47-0.92,0.81-1.28c0.34-0.36,0.74-0.63,1.2-0.83c0.46-0.2,0.95-0.3,1.47-0.3
			c0.91,0,1.7,0.28,2.38,0.83v-0.67H1042.49z M1036.49,466.66c0,0.32,0.05,0.61,0.16,0.88s0.25,0.49,0.44,0.68
			c0.19,0.19,0.41,0.33,0.66,0.44c0.25,0.11,0.51,0.16,0.79,0.16c0.39,0,0.75-0.08,1.06-0.25c0.31-0.17,0.58-0.39,0.81-0.66v-2.48
			c-0.52-0.61-1.16-0.91-1.9-0.91c-0.28,0-0.54,0.05-0.78,0.16c-0.25,0.11-0.46,0.26-0.64,0.45c-0.18,0.19-0.33,0.42-0.43,0.68
			C1036.54,466.07,1036.49,466.35,1036.49,466.66z"/>
		<path class="st14" d="M1047.45,467.86c0,0.41,0.07,0.68,0.21,0.82c0.16,0.16,0.4,0.24,0.72,0.24c0.18,0,0.35-0.02,0.5-0.07
			c0.15-0.05,0.31-0.11,0.46-0.18l0.67,1.47c-0.27,0.18-0.56,0.32-0.87,0.42c-0.31,0.1-0.67,0.15-1.06,0.15
			c-0.37,0-0.75-0.06-1.12-0.18c-0.37-0.12-0.7-0.33-0.98-0.64c-0.19-0.22-0.34-0.49-0.45-0.81c-0.11-0.31-0.16-0.71-0.16-1.19
			v-3.42h-1.84v-1.68h1.84v-2.48h2.08v2.48h2.32v1.68h-2.32V467.86z"/>
		<path class="st14" d="M1050.8,459.99c0-0.36,0.13-0.67,0.38-0.91c0.26-0.25,0.57-0.37,0.93-0.37s0.67,0.12,0.93,0.37
			c0.26,0.25,0.38,0.55,0.38,0.91c0,0.36-0.13,0.67-0.38,0.91c-0.26,0.25-0.57,0.37-0.93,0.37s-0.67-0.12-0.93-0.37
			C1050.93,460.66,1050.8,460.35,1050.8,459.99z M1053.15,470.55h-2.08v-7.76h2.08V470.55z"/>
		<path class="st14" d="M1054.59,466.68c0-0.55,0.1-1.08,0.31-1.58c0.21-0.5,0.49-0.92,0.86-1.29s0.79-0.65,1.29-0.86
			s1.04-0.32,1.62-0.32s1.13,0.11,1.62,0.32s0.92,0.5,1.29,0.86c0.36,0.36,0.65,0.79,0.86,1.29c0.21,0.5,0.31,1.02,0.31,1.58
			c0,0.57-0.1,1.09-0.31,1.58s-0.49,0.91-0.86,1.28c-0.36,0.37-0.79,0.66-1.29,0.86s-1.04,0.31-1.62,0.31s-1.13-0.1-1.62-0.31
			s-0.93-0.5-1.29-0.86c-0.36-0.37-0.65-0.79-0.86-1.28S1054.59,467.24,1054.59,466.68z M1056.67,466.68c0,0.29,0.05,0.56,0.14,0.82
			c0.1,0.26,0.23,0.49,0.4,0.69s0.38,0.35,0.62,0.46s0.52,0.17,0.83,0.17c0.3,0,0.57-0.06,0.82-0.17c0.25-0.11,0.46-0.27,0.63-0.46
			s0.3-0.43,0.4-0.69c0.1-0.26,0.14-0.54,0.14-0.82s-0.05-0.56-0.14-0.82c-0.1-0.26-0.23-0.49-0.4-0.69s-0.38-0.35-0.63-0.47
			c-0.25-0.12-0.53-0.18-0.82-0.18c-0.31,0-0.59,0.06-0.83,0.18c-0.25,0.12-0.45,0.27-0.62,0.47s-0.3,0.43-0.4,0.69
			C1056.72,466.12,1056.67,466.39,1056.67,466.68z"/>
		<path class="st14" d="M1064.21,470.55v-7.76h1.92v0.69c0.31-0.27,0.66-0.47,1.06-0.62c0.4-0.15,0.82-0.22,1.26-0.22
			c0.53,0,1.03,0.11,1.5,0.32s0.85,0.51,1.16,0.88c0.26,0.31,0.45,0.68,0.58,1.11c0.13,0.43,0.2,0.98,0.2,1.66v3.95h-2.08v-4.14
			c0-0.38-0.04-0.69-0.12-0.9s-0.2-0.4-0.34-0.55c-0.29-0.29-0.68-0.43-1.17-0.43c-0.22,0-0.43,0.03-0.63,0.1s-0.38,0.14-0.54,0.24
			c-0.16,0.1-0.3,0.2-0.42,0.31c-0.12,0.11-0.22,0.22-0.3,0.31v5.07H1064.21z"/>
		<path class="st14" d="M1074.02,468.23c0.27,0.2,0.59,0.37,0.97,0.51c0.38,0.14,0.77,0.21,1.16,0.21c0.28,0,0.51-0.06,0.7-0.18
			c0.19-0.12,0.29-0.28,0.29-0.47c0-0.13-0.04-0.24-0.13-0.34c-0.09-0.1-0.2-0.18-0.34-0.26c-0.14-0.07-0.3-0.14-0.49-0.21
			s-0.38-0.13-0.58-0.21c-0.26-0.1-0.52-0.2-0.78-0.31c-0.27-0.11-0.51-0.25-0.72-0.42c-0.21-0.17-0.39-0.38-0.52-0.62
			c-0.13-0.24-0.2-0.54-0.2-0.89c0-0.37,0.08-0.71,0.25-1.01c0.17-0.3,0.39-0.55,0.66-0.76c0.28-0.21,0.59-0.37,0.95-0.48
			s0.73-0.17,1.11-0.17c0.51,0,1,0.08,1.46,0.25s0.84,0.37,1.13,0.6l-0.93,1.41c-0.21-0.14-0.45-0.26-0.7-0.35
			c-0.26-0.1-0.52-0.14-0.8-0.14c-0.29,0-0.54,0.05-0.74,0.14c-0.21,0.09-0.31,0.24-0.31,0.44c0,0.12,0.05,0.22,0.14,0.3
			s0.23,0.15,0.39,0.22c0.17,0.07,0.35,0.14,0.56,0.21s0.42,0.14,0.65,0.22c0.25,0.1,0.49,0.21,0.73,0.33s0.46,0.27,0.65,0.46
			c0.19,0.18,0.35,0.4,0.46,0.66c0.12,0.26,0.18,0.57,0.18,0.93c0,0.39-0.09,0.74-0.26,1.04c-0.18,0.3-0.41,0.55-0.69,0.76
			s-0.61,0.37-0.97,0.47c-0.36,0.11-0.74,0.16-1.12,0.16c-0.55,0-1.1-0.09-1.64-0.26c-0.54-0.18-1.05-0.46-1.53-0.86L1074.02,468.23
			z"/>
	</g>
	<g>
		<path class="st14" d="M888.29,397.45c0,0.73-0.11,1.4-0.33,2.02c-0.22,0.62-0.53,1.17-0.92,1.66l1.71,1.92h-2.45l-0.62-0.7
			c-0.45,0.28-0.93,0.49-1.45,0.64s-1.06,0.22-1.64,0.22c-0.8,0-1.55-0.14-2.24-0.43s-1.3-0.69-1.81-1.2
			c-0.51-0.51-0.92-1.12-1.21-1.82c-0.29-0.7-0.44-1.47-0.44-2.3s0.15-1.6,0.44-2.3c0.29-0.7,0.7-1.31,1.21-1.82
			c0.51-0.51,1.11-0.91,1.81-1.2c0.69-0.29,1.44-0.43,2.24-0.43s1.55,0.14,2.24,0.43c0.69,0.29,1.3,0.69,1.81,1.2
			s0.91,1.12,1.21,1.82C888.14,395.85,888.29,396.62,888.29,397.45z M879.06,397.45c0,0.53,0.09,1.03,0.26,1.5
			c0.18,0.46,0.42,0.87,0.73,1.22c0.31,0.35,0.68,0.62,1.12,0.82c0.44,0.2,0.91,0.3,1.42,0.3c0.32,0,0.63-0.04,0.92-0.12
			c0.29-0.08,0.56-0.19,0.81-0.34l-2.51-2.86l1.36-1.18l2.43,2.74c0.17-0.3,0.3-0.62,0.39-0.98c0.09-0.35,0.14-0.71,0.14-1.09
			c0-0.52-0.09-1.02-0.26-1.49c-0.18-0.47-0.42-0.88-0.73-1.22s-0.68-0.62-1.12-0.82c-0.44-0.2-0.91-0.3-1.42-0.3
			s-0.99,0.1-1.42,0.3c-0.44,0.2-0.81,0.48-1.12,0.82c-0.31,0.35-0.55,0.75-0.73,1.22C879.15,396.43,879.06,396.92,879.06,397.45z"
			/>
		<path class="st14" d="M897.34,395.29v7.76h-1.92v-0.69c-0.3,0.27-0.64,0.47-1.02,0.62c-0.38,0.15-0.78,0.22-1.21,0.22
			c-0.53,0-1.03-0.11-1.48-0.33c-0.45-0.22-0.83-0.51-1.13-0.89c-0.25-0.31-0.43-0.67-0.57-1.1c-0.13-0.42-0.2-0.92-0.2-1.5v-4.11
			h2.08v4.22c0,0.35,0.04,0.63,0.1,0.82s0.16,0.37,0.28,0.5c0.16,0.18,0.34,0.31,0.55,0.38s0.41,0.1,0.62,0.1
			c0.22,0,0.43-0.03,0.62-0.1c0.19-0.06,0.36-0.14,0.51-0.24c0.15-0.1,0.29-0.2,0.4-0.31c0.11-0.11,0.21-0.22,0.28-0.31v-5.07
			H897.34z"/>
		<path class="st14" d="M906.93,395.29v7.76h-1.92v-0.67c-0.3,0.25-0.64,0.45-1.03,0.6c-0.39,0.15-0.83,0.23-1.32,0.23
			c-0.53,0-1.03-0.1-1.49-0.3c-0.46-0.2-0.86-0.48-1.21-0.84c-0.35-0.36-0.62-0.79-0.82-1.28c-0.2-0.49-0.3-1.03-0.3-1.63
			c0-0.59,0.1-1.13,0.3-1.62c0.2-0.5,0.47-0.92,0.81-1.28c0.34-0.36,0.74-0.63,1.2-0.83c0.46-0.2,0.95-0.3,1.47-0.3
			c0.91,0,1.7,0.28,2.38,0.83v-0.67H906.93z M900.93,399.16c0,0.32,0.05,0.61,0.16,0.88s0.25,0.49,0.44,0.68
			c0.19,0.19,0.41,0.33,0.66,0.44c0.25,0.11,0.51,0.16,0.79,0.16c0.39,0,0.75-0.08,1.06-0.25c0.31-0.17,0.58-0.39,0.81-0.66v-2.48
			c-0.52-0.61-1.16-0.91-1.9-0.91c-0.28,0-0.54,0.05-0.78,0.16c-0.25,0.11-0.46,0.26-0.64,0.45c-0.18,0.19-0.33,0.42-0.43,0.68
			C900.98,398.56,900.93,398.85,900.93,399.16z"/>
		<path class="st14" d="M910.97,403.05h-2.08v-11.36h2.08V403.05z"/>
		<path class="st14" d="M912.68,392.49c0-0.36,0.13-0.67,0.38-0.91c0.26-0.25,0.57-0.37,0.93-0.37s0.67,0.12,0.93,0.37
			c0.26,0.25,0.38,0.55,0.38,0.91c0,0.36-0.13,0.67-0.38,0.91c-0.26,0.25-0.57,0.37-0.93,0.37s-0.67-0.12-0.93-0.37
			C912.81,393.15,912.68,392.85,912.68,392.49z M915.03,403.05h-2.08v-7.76h2.08V403.05z"/>
		<path class="st14" d="M919.99,400.36c0,0.41,0.07,0.68,0.21,0.82c0.16,0.16,0.4,0.24,0.72,0.24c0.18,0,0.35-0.02,0.5-0.07
			c0.15-0.05,0.31-0.11,0.46-0.18l0.67,1.47c-0.27,0.18-0.56,0.32-0.87,0.42c-0.31,0.1-0.67,0.15-1.06,0.15
			c-0.37,0-0.75-0.06-1.12-0.18c-0.37-0.12-0.7-0.33-0.98-0.64c-0.19-0.22-0.34-0.49-0.45-0.81c-0.11-0.31-0.16-0.71-0.16-1.19
			v-3.42h-1.84v-1.68h1.84v-2.48h2.08v2.48h2.32v1.68h-2.32V400.36z"/>
		<path class="st14" d="M924.53,406.65l2-4.3l-3.55-7.06h2.22l2.4,4.83l2.19-4.83h2.14l-5.26,11.36H924.53z"/>
		<path class="st14" d="M879.2,411.83c0.03,0.1,0.07,0.23,0.1,0.39c0.04,0.17,0.07,0.35,0.1,0.54s0.06,0.41,0.09,0.63
			s0.04,0.45,0.04,0.67c0,0.54-0.06,1.06-0.17,1.54c-0.11,0.49-0.29,0.93-0.52,1.32l1.84,2.11h-2.59l-0.59-0.67
			c-0.46,0.3-0.94,0.51-1.43,0.64c-0.5,0.13-1.06,0.19-1.7,0.19c-0.54,0-1.07-0.09-1.57-0.26c-0.5-0.17-0.94-0.42-1.33-0.74
			c-0.38-0.32-0.69-0.71-0.92-1.16c-0.23-0.45-0.34-0.96-0.34-1.51c0-0.37,0.05-0.72,0.16-1.04s0.25-0.62,0.44-0.89
			c0.19-0.27,0.4-0.52,0.64-0.74c0.24-0.22,0.49-0.43,0.76-0.61c-0.28-0.36-0.49-0.72-0.65-1.06c-0.16-0.35-0.23-0.71-0.23-1.08
			c0-0.34,0.07-0.66,0.22-0.96c0.14-0.3,0.34-0.56,0.59-0.78c0.25-0.22,0.54-0.39,0.86-0.51s0.66-0.18,1.02-0.18
			c0.38,0,0.74,0.07,1.07,0.2c0.33,0.13,0.62,0.32,0.86,0.55c0.24,0.23,0.43,0.51,0.56,0.83c0.13,0.32,0.2,0.67,0.2,1.04
			c0,0.55-0.15,1.03-0.44,1.42c-0.29,0.39-0.64,0.75-1.03,1.06l2.14,2.46c0.05-0.18,0.09-0.37,0.12-0.58
			c0.03-0.2,0.04-0.41,0.04-0.62c0-0.34-0.02-0.67-0.07-0.98c-0.05-0.31-0.1-0.59-0.15-0.83L879.2,411.83z M873.47,413.7
			c-0.34,0.19-0.62,0.44-0.85,0.75c-0.22,0.31-0.34,0.68-0.34,1.12c0,0.51,0.2,0.94,0.59,1.28s0.93,0.51,1.62,0.51
			c0.31,0,0.62-0.04,0.92-0.11s0.57-0.19,0.81-0.34L873.47,413.7z M874.66,410.26c0-0.2-0.06-0.38-0.18-0.52
			c-0.12-0.14-0.28-0.22-0.48-0.22c-0.18,0-0.33,0.07-0.46,0.22s-0.18,0.32-0.18,0.52c0,0.19,0.06,0.38,0.18,0.58
			s0.25,0.37,0.4,0.54c0.21-0.18,0.39-0.36,0.52-0.54C874.59,410.66,874.66,410.47,874.66,410.26z"/>
		<path class="st14" d="M887.25,414.49v4.56h-2.16v-11.2h4.19c0.79,0,1.43,0.12,1.93,0.35c0.5,0.23,0.9,0.55,1.21,0.96
			c0.45,0.58,0.67,1.24,0.67,2c0,0.77-0.22,1.44-0.67,2.02c-0.31,0.41-0.71,0.73-1.21,0.96c-0.5,0.23-1.14,0.35-1.93,0.35H887.25z
			 M889.01,412.6c0.46,0,0.8-0.04,1.03-0.14c0.23-0.09,0.41-0.21,0.54-0.36c0.23-0.27,0.35-0.58,0.35-0.94
			c0-0.35-0.12-0.66-0.35-0.93c-0.13-0.15-0.31-0.27-0.54-0.36c-0.23-0.09-0.57-0.14-1.03-0.14h-1.76v2.86H889.01z"/>
		<path class="st14" d="M899.03,413.11c-0.11-0.02-0.22-0.03-0.33-0.04c-0.11-0.01-0.24-0.01-0.39-0.01c-0.38,0-0.77,0.09-1.14,0.26
			c-0.38,0.18-0.69,0.46-0.94,0.84v4.88h-2.08v-7.76h2v0.78c0.23-0.29,0.55-0.51,0.94-0.66c0.39-0.15,0.83-0.23,1.31-0.23
			c0.21,0,0.42,0.02,0.62,0.06V413.11z"/>
		<path class="st14" d="M899.58,415.18c0-0.55,0.1-1.08,0.31-1.58c0.21-0.5,0.49-0.92,0.86-1.29s0.79-0.65,1.29-0.86
			s1.04-0.32,1.62-0.32s1.13,0.11,1.62,0.32s0.92,0.5,1.29,0.86c0.36,0.36,0.65,0.79,0.86,1.29c0.21,0.5,0.31,1.02,0.31,1.58
			c0,0.57-0.1,1.09-0.31,1.58s-0.49,0.91-0.86,1.28c-0.36,0.37-0.79,0.66-1.29,0.86s-1.04,0.31-1.62,0.31s-1.13-0.1-1.62-0.31
			s-0.93-0.5-1.29-0.86c-0.36-0.37-0.65-0.79-0.86-1.28S899.58,415.74,899.58,415.18z M901.66,415.18c0,0.29,0.05,0.56,0.14,0.82
			c0.1,0.26,0.23,0.49,0.4,0.69s0.38,0.35,0.62,0.46s0.52,0.17,0.83,0.17c0.3,0,0.57-0.06,0.82-0.17c0.25-0.11,0.46-0.27,0.63-0.46
			s0.3-0.43,0.4-0.69c0.1-0.26,0.14-0.54,0.14-0.82s-0.05-0.56-0.14-0.82c-0.1-0.26-0.23-0.49-0.4-0.69s-0.38-0.35-0.63-0.47
			c-0.25-0.12-0.53-0.18-0.82-0.18c-0.31,0-0.59,0.06-0.83,0.18c-0.25,0.12-0.45,0.27-0.62,0.47s-0.3,0.43-0.4,0.69
			C901.71,414.61,901.66,414.89,901.66,415.18z"/>
		<path class="st14" d="M916.26,417.46c-0.41,0.57-0.9,1-1.49,1.3c-0.59,0.3-1.25,0.45-1.98,0.45c-0.6,0-1.15-0.11-1.65-0.32
			c-0.5-0.21-0.94-0.5-1.3-0.86c-0.37-0.36-0.66-0.79-0.86-1.28c-0.21-0.49-0.31-1.01-0.31-1.57c0-0.55,0.1-1.08,0.31-1.57
			s0.5-0.92,0.86-1.29c0.37-0.37,0.8-0.66,1.3-0.87c0.5-0.21,1.04-0.32,1.63-0.32c0.64,0,1.23,0.13,1.78,0.39
			c0.55,0.26,1.04,0.65,1.46,1.16l-1.33,1.2c-0.26-0.25-0.53-0.45-0.82-0.6c-0.29-0.15-0.62-0.23-0.99-0.23
			c-0.29,0-0.56,0.05-0.82,0.16c-0.26,0.11-0.49,0.25-0.68,0.44c-0.19,0.19-0.35,0.41-0.46,0.67c-0.12,0.26-0.18,0.55-0.18,0.86
			c0,0.31,0.05,0.59,0.16,0.85s0.25,0.48,0.44,0.66s0.41,0.33,0.67,0.44c0.26,0.11,0.55,0.16,0.87,0.16c0.45,0,0.84-0.1,1.18-0.3
			c0.34-0.2,0.6-0.41,0.79-0.63L916.26,417.46z"/>
		<path class="st14" d="M924.08,417.82c-0.39,0.45-0.88,0.79-1.45,1.03c-0.57,0.24-1.17,0.36-1.8,0.36c-0.58,0-1.11-0.1-1.59-0.29
			s-0.91-0.46-1.26-0.82s-0.64-0.78-0.84-1.27c-0.2-0.5-0.3-1.05-0.3-1.66c0-0.54,0.08-1.06,0.26-1.54
			c0.17-0.49,0.42-0.91,0.74-1.29c0.33-0.37,0.72-0.67,1.19-0.89s1-0.33,1.58-0.33c0.55,0,1.06,0.11,1.51,0.32
			c0.45,0.21,0.84,0.5,1.16,0.86c0.32,0.36,0.57,0.78,0.74,1.26s0.26,0.99,0.26,1.54c0,0.22-0.02,0.42-0.05,0.59h-5.39
			c0.03,0.28,0.11,0.52,0.22,0.74s0.27,0.4,0.46,0.55c0.19,0.15,0.4,0.27,0.65,0.35c0.25,0.08,0.51,0.12,0.78,0.12
			c0.45,0,0.84-0.09,1.18-0.28s0.61-0.38,0.81-0.57L924.08,417.82z M922.2,414.25c-0.03-0.37-0.19-0.7-0.46-0.98
			c-0.28-0.28-0.65-0.42-1.12-0.42c-0.48,0-0.87,0.14-1.18,0.42c-0.3,0.28-0.48,0.61-0.54,0.98H922.2z"/>
		<path class="st14" d="M926.03,416.73c0.27,0.2,0.59,0.37,0.97,0.51c0.38,0.14,0.77,0.21,1.16,0.21c0.28,0,0.51-0.06,0.7-0.18
			c0.19-0.12,0.29-0.28,0.29-0.47c0-0.13-0.04-0.24-0.13-0.34c-0.09-0.1-0.2-0.18-0.34-0.26c-0.14-0.07-0.3-0.14-0.49-0.21
			s-0.38-0.13-0.58-0.21c-0.26-0.1-0.52-0.2-0.78-0.31c-0.27-0.11-0.51-0.25-0.72-0.42c-0.21-0.17-0.39-0.38-0.52-0.62
			c-0.13-0.24-0.2-0.54-0.2-0.89c0-0.37,0.08-0.71,0.25-1.01c0.17-0.3,0.39-0.55,0.66-0.76c0.28-0.21,0.59-0.37,0.95-0.48
			s0.73-0.17,1.11-0.17c0.51,0,1,0.08,1.46,0.25s0.84,0.37,1.13,0.6l-0.93,1.41c-0.21-0.14-0.45-0.26-0.7-0.35
			c-0.26-0.1-0.52-0.14-0.8-0.14c-0.29,0-0.54,0.05-0.74,0.14c-0.21,0.09-0.31,0.24-0.31,0.44c0,0.12,0.05,0.22,0.14,0.3
			s0.23,0.15,0.39,0.22c0.17,0.07,0.35,0.14,0.56,0.21s0.42,0.14,0.65,0.22c0.25,0.1,0.49,0.21,0.73,0.33s0.46,0.27,0.65,0.46
			c0.19,0.18,0.35,0.4,0.46,0.66c0.12,0.26,0.18,0.57,0.18,0.93c0,0.39-0.09,0.74-0.26,1.04c-0.18,0.3-0.41,0.55-0.69,0.76
			s-0.61,0.37-0.97,0.47c-0.36,0.11-0.74,0.16-1.12,0.16c-0.55,0-1.1-0.09-1.64-0.26c-0.54-0.18-1.05-0.46-1.53-0.86L926.03,416.73z
			"/>
		<path class="st14" d="M932.94,416.73c0.27,0.2,0.59,0.37,0.97,0.51c0.38,0.14,0.77,0.21,1.16,0.21c0.28,0,0.51-0.06,0.7-0.18
			c0.19-0.12,0.29-0.28,0.29-0.47c0-0.13-0.04-0.24-0.13-0.34c-0.09-0.1-0.2-0.18-0.34-0.26c-0.14-0.07-0.3-0.14-0.49-0.21
			s-0.38-0.13-0.58-0.21c-0.26-0.1-0.52-0.2-0.78-0.31c-0.27-0.11-0.51-0.25-0.72-0.42c-0.21-0.17-0.39-0.38-0.52-0.62
			c-0.13-0.24-0.2-0.54-0.2-0.89c0-0.37,0.08-0.71,0.25-1.01c0.17-0.3,0.39-0.55,0.66-0.76c0.28-0.21,0.59-0.37,0.95-0.48
			s0.73-0.17,1.11-0.17c0.51,0,1,0.08,1.46,0.25s0.84,0.37,1.13,0.6l-0.93,1.41c-0.21-0.14-0.45-0.26-0.7-0.35
			c-0.26-0.1-0.52-0.14-0.8-0.14c-0.29,0-0.54,0.05-0.74,0.14c-0.21,0.09-0.31,0.24-0.31,0.44c0,0.12,0.05,0.22,0.14,0.3
			s0.23,0.15,0.39,0.22c0.17,0.07,0.35,0.14,0.56,0.21s0.42,0.14,0.65,0.22c0.25,0.1,0.49,0.21,0.73,0.33s0.46,0.27,0.65,0.46
			c0.19,0.18,0.35,0.4,0.46,0.66c0.12,0.26,0.18,0.57,0.18,0.93c0,0.39-0.09,0.74-0.26,1.04c-0.18,0.3-0.41,0.55-0.69,0.76
			s-0.61,0.37-0.97,0.47c-0.36,0.11-0.74,0.16-1.12,0.16c-0.55,0-1.1-0.09-1.64-0.26c-0.54-0.18-1.05-0.46-1.53-0.86L932.94,416.73z
			"/>
		<path class="st14" d="M866.23,435.05l4.64-11.2h1.6l4.64,11.2h-2.29l-1.02-2.48h-4.32l-1.02,2.48H866.23z M870.28,430.65h2.74
			l-1.34-3.44L870.28,430.65z"/>
		<path class="st14" d="M878.53,432.73c0.27,0.2,0.59,0.37,0.97,0.51c0.38,0.14,0.77,0.21,1.16,0.21c0.28,0,0.51-0.06,0.7-0.18
			c0.19-0.12,0.29-0.28,0.29-0.47c0-0.13-0.04-0.24-0.13-0.34c-0.09-0.1-0.2-0.18-0.34-0.26c-0.14-0.07-0.3-0.14-0.49-0.21
			s-0.38-0.13-0.58-0.21c-0.26-0.1-0.52-0.2-0.78-0.31c-0.27-0.11-0.51-0.25-0.72-0.42c-0.21-0.17-0.39-0.38-0.52-0.62
			c-0.13-0.24-0.2-0.54-0.2-0.89c0-0.37,0.08-0.71,0.25-1.01c0.17-0.3,0.39-0.55,0.66-0.76c0.28-0.21,0.59-0.37,0.95-0.48
			s0.73-0.17,1.11-0.17c0.51,0,1,0.08,1.46,0.25s0.84,0.37,1.13,0.6l-0.93,1.41c-0.21-0.14-0.45-0.26-0.7-0.35
			c-0.26-0.1-0.52-0.14-0.8-0.14c-0.29,0-0.54,0.05-0.74,0.14c-0.21,0.09-0.31,0.24-0.31,0.44c0,0.12,0.05,0.22,0.14,0.3
			s0.23,0.15,0.39,0.22c0.17,0.07,0.35,0.14,0.56,0.21s0.42,0.14,0.65,0.22c0.25,0.1,0.49,0.21,0.73,0.33s0.46,0.27,0.65,0.46
			c0.19,0.18,0.35,0.4,0.46,0.66c0.12,0.26,0.18,0.57,0.18,0.93c0,0.39-0.09,0.74-0.26,1.04c-0.18,0.3-0.41,0.55-0.69,0.76
			s-0.61,0.37-0.97,0.47c-0.36,0.11-0.74,0.16-1.12,0.16c-0.55,0-1.1-0.09-1.64-0.26c-0.54-0.18-1.05-0.46-1.53-0.86L878.53,432.73z
			"/>
		<path class="st14" d="M885.44,432.73c0.27,0.2,0.59,0.37,0.97,0.51c0.38,0.14,0.77,0.21,1.16,0.21c0.28,0,0.51-0.06,0.7-0.18
			c0.19-0.12,0.29-0.28,0.29-0.47c0-0.13-0.04-0.24-0.13-0.34c-0.09-0.1-0.2-0.18-0.34-0.26c-0.14-0.07-0.3-0.14-0.49-0.21
			s-0.38-0.13-0.58-0.21c-0.26-0.1-0.52-0.2-0.78-0.31c-0.27-0.11-0.51-0.25-0.72-0.42c-0.21-0.17-0.39-0.38-0.52-0.62
			c-0.13-0.24-0.2-0.54-0.2-0.89c0-0.37,0.08-0.71,0.25-1.01c0.17-0.3,0.39-0.55,0.66-0.76c0.28-0.21,0.59-0.37,0.95-0.48
			s0.73-0.17,1.11-0.17c0.51,0,1,0.08,1.46,0.25s0.84,0.37,1.13,0.6l-0.93,1.41c-0.21-0.14-0.45-0.26-0.7-0.35
			c-0.26-0.1-0.52-0.14-0.8-0.14c-0.29,0-0.54,0.05-0.74,0.14c-0.21,0.09-0.31,0.24-0.31,0.44c0,0.12,0.05,0.22,0.14,0.3
			s0.23,0.15,0.39,0.22c0.17,0.07,0.35,0.14,0.56,0.21s0.42,0.14,0.65,0.22c0.25,0.1,0.49,0.21,0.73,0.33s0.46,0.27,0.65,0.46
			c0.19,0.18,0.35,0.4,0.46,0.66c0.12,0.26,0.18,0.57,0.18,0.93c0,0.39-0.09,0.74-0.26,1.04c-0.18,0.3-0.41,0.55-0.69,0.76
			s-0.61,0.37-0.97,0.47c-0.36,0.11-0.74,0.16-1.12,0.16c-0.55,0-1.1-0.09-1.64-0.26c-0.54-0.18-1.05-0.46-1.53-0.86L885.44,432.73z
			"/>
		<path class="st14" d="M899.44,427.29v7.76h-1.92v-0.69c-0.3,0.27-0.64,0.47-1.02,0.62c-0.38,0.15-0.78,0.22-1.21,0.22
			c-0.53,0-1.03-0.11-1.48-0.33c-0.45-0.22-0.83-0.51-1.13-0.89c-0.25-0.31-0.43-0.67-0.57-1.1c-0.13-0.42-0.2-0.92-0.2-1.5v-4.11
			h2.08v4.22c0,0.35,0.04,0.63,0.1,0.82s0.16,0.37,0.28,0.5c0.16,0.18,0.34,0.31,0.55,0.38s0.41,0.1,0.62,0.1
			c0.22,0,0.43-0.03,0.62-0.1c0.19-0.06,0.36-0.14,0.51-0.24c0.15-0.1,0.29-0.2,0.4-0.31c0.11-0.11,0.21-0.22,0.28-0.31v-5.07
			H899.44z"/>
		<path class="st14" d="M906.28,429.11c-0.11-0.02-0.22-0.03-0.33-0.04c-0.11-0.01-0.24-0.01-0.39-0.01c-0.38,0-0.77,0.09-1.14,0.26
			c-0.38,0.18-0.69,0.46-0.94,0.84v4.88h-2.08v-7.76h2v0.78c0.23-0.29,0.55-0.51,0.94-0.66c0.39-0.15,0.83-0.23,1.31-0.23
			c0.21,0,0.42,0.02,0.62,0.06V429.11z"/>
		<path class="st14" d="M914.94,427.29v7.76h-1.92v-0.67c-0.3,0.25-0.64,0.45-1.03,0.6c-0.39,0.15-0.83,0.23-1.32,0.23
			c-0.53,0-1.03-0.1-1.49-0.3c-0.46-0.2-0.86-0.48-1.21-0.84c-0.35-0.36-0.62-0.79-0.82-1.28c-0.2-0.49-0.3-1.03-0.3-1.63
			c0-0.59,0.1-1.13,0.3-1.62c0.2-0.5,0.47-0.92,0.81-1.28c0.34-0.36,0.74-0.63,1.2-0.83c0.46-0.2,0.95-0.3,1.47-0.3
			c0.91,0,1.7,0.28,2.38,0.83v-0.67H914.94z M908.94,431.16c0,0.32,0.05,0.61,0.16,0.88s0.25,0.49,0.44,0.68
			c0.19,0.19,0.41,0.33,0.66,0.44c0.25,0.11,0.51,0.16,0.79,0.16c0.39,0,0.75-0.08,1.06-0.25c0.31-0.17,0.58-0.39,0.81-0.66v-2.48
			c-0.52-0.61-1.16-0.91-1.9-0.91c-0.28,0-0.54,0.05-0.78,0.16c-0.25,0.11-0.46,0.26-0.64,0.45c-0.18,0.19-0.33,0.42-0.43,0.68
			C909,430.56,908.94,430.85,908.94,431.16z"/>
		<path class="st14" d="M916.91,435.05v-7.76h1.92v0.69c0.31-0.27,0.66-0.47,1.06-0.62c0.4-0.15,0.82-0.22,1.26-0.22
			c0.53,0,1.03,0.11,1.5,0.32s0.85,0.51,1.16,0.88c0.26,0.31,0.45,0.68,0.58,1.11c0.13,0.43,0.2,0.98,0.2,1.66v3.95h-2.08v-4.14
			c0-0.38-0.04-0.69-0.12-0.9s-0.2-0.4-0.34-0.55c-0.29-0.29-0.68-0.43-1.17-0.43c-0.22,0-0.43,0.03-0.63,0.1s-0.38,0.14-0.54,0.24
			c-0.16,0.1-0.3,0.2-0.42,0.31c-0.12,0.11-0.22,0.22-0.3,0.31v5.07H916.91z"/>
		<path class="st14" d="M933.51,433.46c-0.41,0.57-0.9,1-1.49,1.3c-0.59,0.3-1.25,0.45-1.98,0.45c-0.6,0-1.15-0.11-1.65-0.32
			c-0.5-0.21-0.94-0.5-1.3-0.86c-0.37-0.36-0.66-0.79-0.86-1.28c-0.21-0.49-0.31-1.01-0.31-1.57c0-0.55,0.1-1.08,0.31-1.57
			s0.5-0.92,0.86-1.29c0.37-0.37,0.8-0.66,1.3-0.87c0.5-0.21,1.04-0.32,1.63-0.32c0.64,0,1.23,0.13,1.78,0.39
			c0.55,0.26,1.04,0.65,1.46,1.16l-1.33,1.2c-0.26-0.25-0.53-0.45-0.82-0.6c-0.29-0.15-0.62-0.23-0.99-0.23
			c-0.29,0-0.56,0.05-0.82,0.16c-0.26,0.11-0.49,0.25-0.68,0.44c-0.19,0.19-0.35,0.41-0.46,0.67c-0.12,0.26-0.18,0.55-0.18,0.86
			c0,0.31,0.05,0.59,0.16,0.85s0.25,0.48,0.44,0.66s0.41,0.33,0.67,0.44c0.26,0.11,0.55,0.16,0.87,0.16c0.45,0,0.84-0.1,1.18-0.3
			c0.34-0.2,0.6-0.41,0.79-0.63L933.51,433.46z"/>
		<path class="st14" d="M941.32,433.82c-0.39,0.45-0.88,0.79-1.45,1.03c-0.57,0.24-1.17,0.36-1.8,0.36c-0.58,0-1.11-0.1-1.59-0.29
			s-0.91-0.46-1.26-0.82s-0.64-0.78-0.84-1.27c-0.2-0.5-0.3-1.05-0.3-1.66c0-0.54,0.08-1.06,0.26-1.54
			c0.17-0.49,0.42-0.91,0.74-1.29c0.33-0.37,0.72-0.67,1.19-0.89s1-0.33,1.58-0.33c0.55,0,1.06,0.11,1.51,0.32
			c0.45,0.21,0.84,0.5,1.16,0.86c0.32,0.36,0.57,0.78,0.74,1.26s0.26,0.99,0.26,1.54c0,0.22-0.02,0.42-0.05,0.59h-5.39
			c0.03,0.28,0.11,0.52,0.22,0.74s0.27,0.4,0.46,0.55c0.19,0.15,0.4,0.27,0.65,0.35c0.25,0.08,0.51,0.12,0.78,0.12
			c0.45,0,0.84-0.09,1.18-0.28s0.61-0.38,0.81-0.57L941.32,433.82z M939.44,430.25c-0.03-0.37-0.19-0.7-0.46-0.98
			c-0.28-0.28-0.65-0.42-1.12-0.42c-0.48,0-0.87,0.14-1.18,0.42c-0.3,0.28-0.48,0.61-0.54,0.98H939.44z"/>
	</g>
	<g>
		<path class="st9" d="M829.51,504.21v4.56h-2.16v-11.2h4.19c0.79,0,1.43,0.12,1.93,0.35c0.5,0.23,0.9,0.55,1.21,0.96
			c0.45,0.58,0.67,1.24,0.67,2c0,0.77-0.22,1.44-0.67,2.02c-0.31,0.41-0.71,0.73-1.21,0.96c-0.5,0.23-1.14,0.35-1.93,0.35H829.51z
			 M831.27,502.32c0.46,0,0.8-0.04,1.03-0.14c0.23-0.09,0.41-0.21,0.54-0.36c0.23-0.27,0.35-0.58,0.35-0.94
			c0-0.35-0.12-0.66-0.35-0.93c-0.13-0.15-0.31-0.27-0.54-0.36c-0.23-0.09-0.57-0.14-1.03-0.14h-1.76v2.86H831.27z"/>
		<path class="st9" d="M841.29,502.83c-0.11-0.02-0.22-0.03-0.33-0.04c-0.11-0.01-0.24-0.01-0.39-0.01c-0.38,0-0.77,0.09-1.14,0.26
			c-0.38,0.18-0.69,0.46-0.94,0.84v4.88h-2.08v-7.76h2v0.78c0.23-0.29,0.55-0.51,0.94-0.66c0.39-0.15,0.83-0.23,1.31-0.23
			c0.21,0,0.42,0.02,0.62,0.06V502.83z"/>
		<path class="st9" d="M841.84,504.89c0-0.55,0.1-1.08,0.31-1.58c0.21-0.5,0.49-0.92,0.86-1.29s0.79-0.65,1.29-0.86
			s1.04-0.32,1.62-0.32s1.13,0.11,1.62,0.32s0.92,0.5,1.29,0.86c0.36,0.36,0.65,0.79,0.86,1.29c0.21,0.5,0.31,1.02,0.31,1.58
			c0,0.57-0.1,1.09-0.31,1.58s-0.49,0.91-0.86,1.28c-0.36,0.37-0.79,0.66-1.29,0.86s-1.04,0.31-1.62,0.31s-1.13-0.1-1.62-0.31
			s-0.93-0.5-1.29-0.86c-0.36-0.37-0.65-0.79-0.86-1.28S841.84,505.46,841.84,504.89z M843.92,504.89c0,0.29,0.05,0.56,0.14,0.82
			c0.1,0.26,0.23,0.49,0.4,0.69s0.38,0.35,0.62,0.46s0.52,0.17,0.83,0.17c0.3,0,0.57-0.06,0.82-0.17c0.25-0.11,0.46-0.27,0.63-0.46
			s0.3-0.43,0.4-0.69c0.1-0.26,0.14-0.54,0.14-0.82s-0.05-0.56-0.14-0.82c-0.1-0.26-0.23-0.49-0.4-0.69s-0.38-0.35-0.63-0.47
			c-0.25-0.12-0.53-0.18-0.82-0.18c-0.31,0-0.59,0.06-0.83,0.18c-0.25,0.12-0.45,0.27-0.62,0.47s-0.3,0.43-0.4,0.69
			C843.97,504.33,843.92,504.61,843.92,504.89z"/>
		<path class="st9" d="M849.65,510.41c0.12,0.09,0.25,0.15,0.4,0.2c0.15,0.05,0.3,0.07,0.46,0.07c0.16,0,0.3-0.03,0.43-0.1
			c0.13-0.06,0.23-0.14,0.3-0.24c0.06-0.09,0.12-0.19,0.15-0.32s0.06-0.33,0.06-0.61v-8.42h2.08v8.4c0,0.61-0.08,1.11-0.25,1.52
			c-0.17,0.41-0.4,0.73-0.71,0.98c-0.5,0.42-1.1,0.62-1.81,0.62c-0.39,0-0.76-0.06-1.09-0.17c-0.33-0.11-0.62-0.27-0.86-0.49
			L849.65,510.41z M851.19,498.21c0-0.36,0.13-0.67,0.38-0.91c0.26-0.25,0.57-0.37,0.93-0.37s0.67,0.12,0.93,0.37
			c0.26,0.25,0.38,0.55,0.38,0.91c0,0.36-0.13,0.67-0.38,0.91c-0.26,0.25-0.57,0.37-0.93,0.37s-0.67-0.12-0.93-0.37
			C851.31,498.87,851.19,498.57,851.19,498.21z"/>
		<path class="st9" d="M862.23,507.53c-0.39,0.45-0.88,0.79-1.45,1.03c-0.57,0.24-1.17,0.36-1.8,0.36c-0.58,0-1.11-0.1-1.59-0.29
			s-0.91-0.46-1.26-0.82s-0.64-0.78-0.84-1.27c-0.2-0.5-0.3-1.05-0.3-1.66c0-0.54,0.08-1.06,0.26-1.54
			c0.17-0.49,0.42-0.91,0.74-1.29c0.33-0.37,0.72-0.67,1.19-0.89s1-0.33,1.58-0.33c0.55,0,1.06,0.11,1.51,0.32
			c0.45,0.21,0.84,0.5,1.16,0.86c0.32,0.36,0.57,0.78,0.74,1.26s0.26,0.99,0.26,1.54c0,0.22-0.02,0.42-0.05,0.59h-5.39
			c0.03,0.28,0.11,0.52,0.22,0.74s0.27,0.4,0.46,0.55c0.19,0.15,0.4,0.27,0.65,0.35c0.25,0.08,0.51,0.12,0.78,0.12
			c0.45,0,0.84-0.09,1.18-0.28s0.61-0.38,0.81-0.57L862.23,507.53z M860.34,503.97c-0.03-0.37-0.19-0.7-0.46-0.98
			c-0.28-0.28-0.65-0.42-1.12-0.42c-0.48,0-0.87,0.14-1.18,0.42c-0.3,0.28-0.48,0.61-0.54,0.98H860.34z"/>
		<path class="st9" d="M870.99,507.18c-0.41,0.57-0.9,1-1.49,1.3c-0.59,0.3-1.25,0.45-1.98,0.45c-0.6,0-1.15-0.11-1.65-0.32
			c-0.5-0.21-0.94-0.5-1.3-0.86c-0.37-0.36-0.66-0.79-0.86-1.28c-0.21-0.49-0.31-1.01-0.31-1.57c0-0.55,0.1-1.08,0.31-1.57
			s0.5-0.92,0.86-1.29c0.37-0.37,0.8-0.66,1.3-0.87c0.5-0.21,1.04-0.32,1.63-0.32c0.64,0,1.23,0.13,1.78,0.39
			c0.55,0.26,1.04,0.65,1.46,1.16l-1.33,1.2c-0.26-0.25-0.53-0.45-0.82-0.6c-0.29-0.15-0.62-0.23-0.99-0.23
			c-0.29,0-0.56,0.05-0.82,0.16c-0.26,0.11-0.49,0.25-0.68,0.44c-0.19,0.19-0.35,0.41-0.46,0.67c-0.12,0.26-0.18,0.55-0.18,0.86
			c0,0.31,0.05,0.59,0.16,0.85s0.25,0.48,0.44,0.66s0.41,0.33,0.67,0.44c0.26,0.11,0.55,0.16,0.87,0.16c0.45,0,0.84-0.1,1.18-0.3
			c0.34-0.2,0.6-0.41,0.79-0.63L870.99,507.18z"/>
		<path class="st9" d="M875.43,506.08c0,0.41,0.07,0.68,0.21,0.82c0.16,0.16,0.4,0.24,0.72,0.24c0.18,0,0.35-0.02,0.5-0.07
			c0.15-0.05,0.31-0.11,0.46-0.18l0.67,1.47c-0.27,0.18-0.56,0.32-0.87,0.42c-0.31,0.1-0.67,0.15-1.06,0.15
			c-0.37,0-0.75-0.06-1.12-0.18c-0.37-0.12-0.7-0.33-0.98-0.64c-0.19-0.22-0.34-0.49-0.45-0.81c-0.11-0.31-0.16-0.71-0.16-1.19
			v-3.42h-1.84v-1.68h1.84v-2.48h2.08v2.48h2.32v1.68h-2.32V506.08z"/>
		<path class="st9" d="M809.16,519.31l3.9-5.74h1.6v11.2h-2.13v-6.88l-3.18,4.72h-0.42l-3.18-4.72v6.88h-2.13v-11.2h1.6
			L809.16,519.31z"/>
		<path class="st9" d="M824.4,517.01v7.76h-1.92v-0.67c-0.3,0.25-0.64,0.45-1.03,0.6c-0.39,0.15-0.83,0.23-1.32,0.23
			c-0.53,0-1.03-0.1-1.49-0.3c-0.46-0.2-0.86-0.48-1.21-0.84c-0.35-0.36-0.62-0.79-0.82-1.28c-0.2-0.49-0.3-1.03-0.3-1.63
			c0-0.59,0.1-1.13,0.3-1.62c0.2-0.5,0.47-0.92,0.81-1.28c0.34-0.36,0.74-0.63,1.2-0.83c0.46-0.2,0.95-0.3,1.47-0.3
			c0.91,0,1.7,0.28,2.38,0.83v-0.67H824.4z M818.4,520.88c0,0.32,0.05,0.61,0.16,0.88s0.25,0.49,0.44,0.68
			c0.19,0.19,0.41,0.33,0.66,0.44c0.25,0.11,0.51,0.16,0.79,0.16c0.39,0,0.75-0.08,1.06-0.25c0.31-0.17,0.58-0.39,0.81-0.66v-2.48
			c-0.52-0.61-1.16-0.91-1.9-0.91c-0.28,0-0.54,0.05-0.78,0.16c-0.25,0.11-0.46,0.26-0.64,0.45c-0.18,0.19-0.33,0.42-0.43,0.68
			C818.45,520.28,818.4,520.57,818.4,520.88z"/>
		<path class="st9" d="M826.37,524.77v-7.76h1.92v0.69c0.31-0.27,0.66-0.47,1.06-0.62c0.4-0.15,0.82-0.22,1.26-0.22
			c0.53,0,1.03,0.11,1.5,0.32s0.85,0.51,1.16,0.88c0.26,0.31,0.45,0.68,0.58,1.11c0.13,0.43,0.2,0.98,0.2,1.66v3.95h-2.08v-4.14
			c0-0.38-0.04-0.69-0.12-0.9s-0.2-0.4-0.34-0.55c-0.29-0.29-0.68-0.43-1.17-0.43c-0.22,0-0.43,0.03-0.63,0.1s-0.38,0.14-0.54,0.24
			c-0.16,0.1-0.3,0.2-0.42,0.31c-0.12,0.11-0.22,0.22-0.3,0.31v5.07H826.37z"/>
		<path class="st9" d="M843.48,517.01v7.76h-1.92v-0.67c-0.3,0.25-0.64,0.45-1.03,0.6c-0.39,0.15-0.83,0.23-1.32,0.23
			c-0.53,0-1.03-0.1-1.49-0.3c-0.46-0.2-0.86-0.48-1.21-0.84c-0.35-0.36-0.62-0.79-0.82-1.28c-0.2-0.49-0.3-1.03-0.3-1.63
			c0-0.59,0.1-1.13,0.3-1.62c0.2-0.5,0.47-0.92,0.81-1.28c0.34-0.36,0.74-0.63,1.2-0.83c0.46-0.2,0.95-0.3,1.47-0.3
			c0.91,0,1.7,0.28,2.38,0.83v-0.67H843.48z M837.48,520.88c0,0.32,0.05,0.61,0.16,0.88s0.25,0.49,0.44,0.68
			c0.19,0.19,0.41,0.33,0.66,0.44c0.25,0.11,0.51,0.16,0.79,0.16c0.39,0,0.75-0.08,1.06-0.25c0.31-0.17,0.58-0.39,0.81-0.66v-2.48
			c-0.52-0.61-1.16-0.91-1.9-0.91c-0.28,0-0.54,0.05-0.78,0.16c-0.25,0.11-0.46,0.26-0.64,0.45c-0.18,0.19-0.33,0.42-0.43,0.68
			C837.53,520.28,837.48,520.57,837.48,520.88z"/>
		<path class="st9" d="M853.06,517.01v7.09c0,0.7-0.06,1.28-0.18,1.72c-0.12,0.44-0.29,0.83-0.53,1.16
			c-0.35,0.49-0.83,0.87-1.42,1.14c-0.6,0.27-1.27,0.41-2.02,0.41c-0.38,0-0.76-0.04-1.12-0.12s-0.7-0.19-1.02-0.34
			c-0.32-0.14-0.62-0.31-0.89-0.51c-0.27-0.2-0.5-0.41-0.7-0.63l1.25-1.28c0.11,0.1,0.24,0.2,0.38,0.32
			c0.15,0.12,0.33,0.23,0.53,0.34c0.2,0.11,0.43,0.2,0.7,0.27c0.26,0.07,0.55,0.11,0.87,0.11c0.34,0,0.65-0.05,0.91-0.15
			c0.27-0.1,0.49-0.26,0.67-0.47c0.16-0.18,0.28-0.41,0.36-0.67s0.12-0.66,0.12-1.17c-0.28,0.21-0.6,0.38-0.97,0.51
			c-0.37,0.13-0.78,0.19-1.22,0.19c-0.53,0-1.03-0.1-1.49-0.3c-0.46-0.2-0.86-0.48-1.21-0.84c-0.35-0.36-0.62-0.79-0.82-1.28
			c-0.2-0.49-0.3-1.03-0.3-1.63c0-0.59,0.1-1.13,0.3-1.62c0.2-0.5,0.47-0.92,0.81-1.28c0.34-0.36,0.74-0.63,1.2-0.83
			c0.46-0.2,0.95-0.3,1.47-0.3c0.91,0,1.7,0.28,2.38,0.83v-0.67H853.06z M847.06,520.88c0,0.32,0.05,0.61,0.16,0.88
			s0.25,0.49,0.44,0.68c0.19,0.19,0.41,0.33,0.66,0.44c0.25,0.11,0.51,0.16,0.79,0.16c0.39,0,0.75-0.08,1.06-0.25
			c0.31-0.17,0.58-0.39,0.81-0.66v-2.48c-0.52-0.61-1.16-0.91-1.9-0.91c-0.28,0-0.54,0.05-0.78,0.16c-0.25,0.11-0.46,0.26-0.64,0.45
			c-0.18,0.19-0.33,0.42-0.43,0.68C847.12,520.28,847.06,520.57,847.06,520.88z"/>
		<path class="st9" d="M861.82,523.53c-0.39,0.45-0.88,0.79-1.45,1.03c-0.57,0.24-1.17,0.36-1.8,0.36c-0.58,0-1.11-0.1-1.59-0.29
			s-0.91-0.46-1.26-0.82s-0.64-0.78-0.84-1.27c-0.2-0.5-0.3-1.05-0.3-1.66c0-0.54,0.08-1.06,0.26-1.54
			c0.17-0.49,0.42-0.91,0.74-1.29c0.33-0.37,0.72-0.67,1.19-0.89s1-0.33,1.58-0.33c0.55,0,1.06,0.11,1.51,0.32
			c0.45,0.21,0.84,0.5,1.16,0.86c0.32,0.36,0.57,0.78,0.74,1.26s0.26,0.99,0.26,1.54c0,0.22-0.02,0.42-0.05,0.59h-5.39
			c0.03,0.28,0.11,0.52,0.22,0.74s0.27,0.4,0.46,0.55c0.19,0.15,0.4,0.27,0.65,0.35c0.25,0.08,0.51,0.12,0.78,0.12
			c0.45,0,0.84-0.09,1.18-0.28s0.61-0.38,0.81-0.57L861.82,523.53z M859.93,519.97c-0.03-0.37-0.19-0.7-0.46-0.98
			c-0.28-0.28-0.65-0.42-1.12-0.42c-0.48,0-0.87,0.14-1.18,0.42c-0.3,0.28-0.48,0.61-0.54,0.98H859.93z"/>
		<path class="st9" d="M863.5,524.77v-7.76h1.92v0.69c0.28-0.28,0.62-0.49,1.02-0.63c0.4-0.14,0.8-0.22,1.21-0.22
			c0.52,0,1,0.11,1.45,0.34c0.44,0.22,0.81,0.52,1.11,0.88c0.31-0.33,0.7-0.62,1.18-0.86c0.47-0.24,1-0.36,1.58-0.36
			c0.55,0,1.07,0.11,1.55,0.32c0.48,0.21,0.88,0.51,1.18,0.9c0.25,0.31,0.43,0.67,0.57,1.1c0.13,0.42,0.2,0.92,0.2,1.5v4.11h-2.08
			v-4.22c0-0.35-0.03-0.63-0.1-0.82s-0.16-0.37-0.28-0.5c-0.16-0.18-0.34-0.31-0.55-0.38c-0.21-0.07-0.41-0.1-0.62-0.1
			c-0.22,0-0.43,0.04-0.63,0.1c-0.2,0.07-0.38,0.15-0.54,0.26s-0.3,0.21-0.42,0.34c-0.12,0.12-0.22,0.23-0.28,0.33
			c0.02,0.13,0.04,0.26,0.05,0.41s0.02,0.3,0.02,0.46v4.14h-2.08v-4.22c0-0.35-0.04-0.63-0.1-0.82s-0.16-0.37-0.28-0.5
			c-0.16-0.18-0.34-0.31-0.55-0.38c-0.21-0.07-0.41-0.1-0.62-0.1c-0.22,0-0.43,0.03-0.62,0.1c-0.19,0.06-0.36,0.14-0.51,0.24
			c-0.15,0.1-0.29,0.2-0.4,0.31c-0.11,0.11-0.21,0.22-0.28,0.31v5.07H863.5z"/>
		<path class="st9" d="M885.06,523.53c-0.39,0.45-0.88,0.79-1.45,1.03c-0.57,0.24-1.17,0.36-1.8,0.36c-0.58,0-1.11-0.1-1.59-0.29
			s-0.91-0.46-1.26-0.82s-0.64-0.78-0.84-1.27c-0.2-0.5-0.3-1.05-0.3-1.66c0-0.54,0.08-1.06,0.26-1.54
			c0.17-0.49,0.42-0.91,0.74-1.29c0.33-0.37,0.72-0.67,1.19-0.89s1-0.33,1.58-0.33c0.55,0,1.06,0.11,1.51,0.32
			c0.45,0.21,0.84,0.5,1.16,0.86c0.32,0.36,0.57,0.78,0.74,1.26s0.26,0.99,0.26,1.54c0,0.22-0.02,0.42-0.05,0.59h-5.39
			c0.03,0.28,0.11,0.52,0.22,0.74s0.27,0.4,0.46,0.55c0.19,0.15,0.4,0.27,0.65,0.35c0.25,0.08,0.51,0.12,0.78,0.12
			c0.45,0,0.84-0.09,1.18-0.28s0.61-0.38,0.81-0.57L885.06,523.53z M883.17,519.97c-0.03-0.37-0.19-0.7-0.46-0.98
			c-0.28-0.28-0.65-0.42-1.12-0.42c-0.48,0-0.87,0.14-1.18,0.42c-0.3,0.28-0.48,0.61-0.54,0.98H883.17z"/>
		<path class="st9" d="M886.74,524.77v-7.76h1.92v0.69c0.31-0.27,0.66-0.47,1.06-0.62c0.4-0.15,0.82-0.22,1.26-0.22
			c0.53,0,1.03,0.11,1.5,0.32s0.85,0.51,1.16,0.88c0.26,0.31,0.45,0.68,0.58,1.11c0.13,0.43,0.2,0.98,0.2,1.66v3.95h-2.08v-4.14
			c0-0.38-0.04-0.69-0.12-0.9s-0.2-0.4-0.34-0.55c-0.29-0.29-0.68-0.43-1.17-0.43c-0.22,0-0.43,0.03-0.63,0.1s-0.38,0.14-0.54,0.24
			c-0.16,0.1-0.3,0.2-0.42,0.31c-0.12,0.11-0.22,0.22-0.3,0.31v5.07H886.74z"/>
		<path class="st9" d="M899.15,522.08c0,0.41,0.07,0.68,0.21,0.82c0.16,0.16,0.4,0.24,0.72,0.24c0.18,0,0.35-0.02,0.5-0.07
			c0.15-0.05,0.31-0.11,0.46-0.18l0.67,1.47c-0.27,0.18-0.56,0.32-0.87,0.42c-0.31,0.1-0.67,0.15-1.06,0.15
			c-0.37,0-0.75-0.06-1.12-0.18c-0.37-0.12-0.7-0.33-0.98-0.64c-0.19-0.22-0.34-0.49-0.45-0.81c-0.11-0.31-0.16-0.71-0.16-1.19
			v-3.42h-1.84v-1.68h1.84v-2.48h2.08v2.48h2.32v1.68h-2.32V522.08z"/>
	</g>
	<g>
		<path class="st14" d="M1025.35,596.78v4.56h-2.16v-11.2h4.19c0.79,0,1.43,0.12,1.93,0.35s0.9,0.55,1.21,0.96
			c0.45,0.58,0.67,1.24,0.67,2c0,0.77-0.22,1.44-0.67,2.02c-0.31,0.41-0.71,0.73-1.21,0.96c-0.5,0.24-1.14,0.35-1.93,0.35H1025.35z
			 M1027.11,594.89c0.46,0,0.8-0.04,1.03-0.14c0.23-0.09,0.41-0.21,0.54-0.36c0.23-0.27,0.35-0.58,0.35-0.94
			c0-0.35-0.12-0.66-0.35-0.93c-0.13-0.15-0.31-0.27-0.54-0.36s-0.57-0.14-1.03-0.14h-1.76v2.86H1027.11z"/>
		<path class="st14" d="M1034.34,601.34h-2.08v-11.36h2.08V601.34z"/>
		<path class="st14" d="M1043.93,593.58v7.76h-1.92v-0.67c-0.3,0.25-0.64,0.45-1.03,0.6c-0.39,0.15-0.83,0.23-1.32,0.23
			c-0.53,0-1.03-0.1-1.49-0.3s-0.86-0.48-1.21-0.84s-0.62-0.79-0.82-1.28c-0.2-0.49-0.3-1.03-0.3-1.63c0-0.59,0.1-1.13,0.3-1.62
			c0.2-0.5,0.47-0.92,0.81-1.28c0.34-0.36,0.74-0.63,1.2-0.83c0.46-0.2,0.95-0.3,1.47-0.3c0.91,0,1.7,0.28,2.38,0.83v-0.67H1043.93z
			 M1037.93,597.45c0,0.32,0.05,0.61,0.16,0.88s0.25,0.49,0.44,0.68c0.19,0.19,0.41,0.33,0.66,0.44c0.25,0.11,0.51,0.16,0.79,0.16
			c0.39,0,0.75-0.08,1.06-0.25s0.58-0.39,0.81-0.66v-2.48c-0.52-0.61-1.16-0.91-1.9-0.91c-0.28,0-0.54,0.05-0.78,0.16
			c-0.25,0.11-0.46,0.26-0.64,0.45c-0.18,0.19-0.33,0.42-0.43,0.68C1037.99,596.86,1037.93,597.14,1037.93,597.45z"/>
		<path class="st14" d="M1045.9,601.34v-7.76h1.92v0.69c0.31-0.27,0.66-0.47,1.06-0.62c0.4-0.15,0.82-0.22,1.26-0.22
			c0.53,0,1.03,0.11,1.5,0.32c0.46,0.21,0.85,0.51,1.16,0.88c0.26,0.31,0.45,0.68,0.58,1.11c0.13,0.43,0.2,0.98,0.2,1.66v3.95h-2.08
			v-4.14c0-0.38-0.04-0.69-0.12-0.9s-0.2-0.4-0.34-0.55c-0.29-0.29-0.68-0.43-1.17-0.43c-0.22,0-0.43,0.03-0.63,0.1
			c-0.2,0.06-0.38,0.14-0.54,0.24c-0.16,0.1-0.3,0.2-0.42,0.31c-0.12,0.11-0.22,0.22-0.3,0.31v5.07H1045.9z"/>
		<path class="st14" d="M1055.45,601.34v-7.76h1.92v0.69c0.31-0.27,0.66-0.47,1.06-0.62c0.4-0.15,0.82-0.22,1.26-0.22
			c0.53,0,1.03,0.11,1.5,0.32c0.46,0.21,0.85,0.51,1.16,0.88c0.26,0.31,0.45,0.68,0.58,1.11c0.13,0.43,0.2,0.98,0.2,1.66v3.95h-2.08
			v-4.14c0-0.38-0.04-0.69-0.12-0.9s-0.2-0.4-0.34-0.55c-0.29-0.29-0.68-0.43-1.17-0.43c-0.22,0-0.43,0.03-0.63,0.1
			c-0.2,0.06-0.38,0.14-0.54,0.24c-0.16,0.1-0.3,0.2-0.42,0.31c-0.12,0.11-0.22,0.22-0.3,0.31v5.07H1055.45z"/>
		<path class="st14" d="M1064.69,590.78c0-0.36,0.13-0.67,0.38-0.91s0.57-0.37,0.93-0.37s0.67,0.12,0.93,0.37
			c0.26,0.25,0.38,0.55,0.38,0.91s-0.13,0.67-0.38,0.91c-0.26,0.25-0.57,0.37-0.93,0.37s-0.67-0.12-0.93-0.37
			S1064.69,591.14,1064.69,590.78z M1067.04,601.34h-2.08v-7.76h2.08V601.34z"/>
		<path class="st14" d="M1069.02,601.34v-7.76h1.92v0.69c0.31-0.27,0.66-0.47,1.06-0.62c0.4-0.15,0.82-0.22,1.26-0.22
			c0.53,0,1.03,0.11,1.5,0.32c0.46,0.21,0.85,0.51,1.16,0.88c0.26,0.31,0.45,0.68,0.58,1.11c0.13,0.43,0.2,0.98,0.2,1.66v3.95h-2.08
			v-4.14c0-0.38-0.04-0.69-0.12-0.9s-0.2-0.4-0.34-0.55c-0.29-0.29-0.68-0.43-1.17-0.43c-0.22,0-0.43,0.03-0.63,0.1
			c-0.2,0.06-0.38,0.14-0.54,0.24c-0.16,0.1-0.3,0.2-0.42,0.31c-0.12,0.11-0.22,0.22-0.3,0.31v5.07H1069.02z"/>
		<path class="st14" d="M1086.13,593.58v7.09c0,0.7-0.06,1.28-0.18,1.72c-0.12,0.44-0.29,0.83-0.53,1.16
			c-0.35,0.49-0.83,0.87-1.42,1.14c-0.6,0.27-1.27,0.41-2.02,0.41c-0.38,0-0.76-0.04-1.12-0.12s-0.7-0.19-1.02-0.34
			c-0.32-0.14-0.62-0.32-0.89-0.51c-0.27-0.2-0.5-0.41-0.7-0.63l1.25-1.28c0.11,0.1,0.24,0.2,0.38,0.32s0.33,0.23,0.53,0.34
			c0.2,0.11,0.43,0.2,0.7,0.27c0.26,0.07,0.55,0.11,0.87,0.11c0.34,0,0.65-0.05,0.91-0.15c0.27-0.1,0.49-0.26,0.67-0.47
			c0.16-0.18,0.28-0.41,0.36-0.67s0.12-0.66,0.12-1.17c-0.28,0.21-0.6,0.38-0.97,0.51c-0.37,0.13-0.78,0.19-1.22,0.19
			c-0.53,0-1.03-0.1-1.49-0.3s-0.86-0.48-1.21-0.84s-0.62-0.79-0.82-1.28c-0.2-0.49-0.3-1.03-0.3-1.63c0-0.59,0.1-1.13,0.3-1.62
			c0.2-0.5,0.47-0.92,0.81-1.28c0.34-0.36,0.74-0.63,1.2-0.83c0.46-0.2,0.95-0.3,1.47-0.3c0.91,0,1.7,0.28,2.38,0.83v-0.67H1086.13z
			 M1080.13,597.45c0,0.32,0.05,0.61,0.16,0.88s0.25,0.49,0.44,0.68c0.19,0.19,0.41,0.33,0.66,0.44c0.25,0.11,0.51,0.16,0.79,0.16
			c0.39,0,0.75-0.08,1.06-0.25s0.58-0.39,0.81-0.66v-2.48c-0.52-0.61-1.16-0.91-1.9-0.91c-0.28,0-0.54,0.05-0.78,0.16
			c-0.25,0.11-0.46,0.26-0.64,0.45c-0.18,0.19-0.33,0.42-0.43,0.68C1080.19,596.86,1080.13,597.14,1080.13,597.45z"/>
	</g>
	<g>
		<path class="st14" d="M839.54,584.65c0.9,0,1.65,0.09,2.26,0.27c0.61,0.18,1.14,0.44,1.6,0.78c0.69,0.51,1.24,1.16,1.63,1.95
			c0.39,0.79,0.59,1.65,0.59,2.59c0,0.94-0.2,1.8-0.59,2.59c-0.39,0.79-0.94,1.44-1.63,1.95c-0.46,0.34-0.99,0.6-1.6,0.78
			c-0.61,0.18-1.36,0.27-2.26,0.27h-3.84v-11.2H839.54z M843.46,590.25c0-0.47-0.07-0.91-0.22-1.33c-0.14-0.42-0.34-0.78-0.6-1.1
			c-0.31-0.39-0.7-0.7-1.16-0.92s-1.03-0.33-1.7-0.33h-1.92v7.36h1.92c0.67,0,1.24-0.11,1.7-0.33s0.85-0.53,1.16-0.92
			c0.26-0.32,0.46-0.69,0.6-1.1C843.39,591.16,843.46,590.72,843.46,590.25z"/>
		<path class="st14" d="M846.85,585.29c0-0.36,0.13-0.67,0.38-0.91c0.26-0.25,0.57-0.37,0.93-0.37s0.67,0.12,0.93,0.37
			c0.26,0.25,0.38,0.55,0.38,0.91c0,0.36-0.13,0.67-0.38,0.91c-0.26,0.25-0.57,0.37-0.93,0.37s-0.67-0.12-0.93-0.37
			C846.97,585.96,846.85,585.65,846.85,585.29z M849.2,595.85h-2.08v-7.76h2.08V595.85z"/>
		<path class="st14" d="M858.72,588.09v7.09c0,0.7-0.06,1.28-0.18,1.72s-0.29,0.83-0.53,1.16c-0.35,0.49-0.83,0.87-1.42,1.14
			c-0.6,0.27-1.27,0.41-2.02,0.41c-0.38,0-0.76-0.04-1.12-0.12s-0.7-0.19-1.02-0.34c-0.32-0.14-0.62-0.31-0.89-0.51
			c-0.27-0.2-0.5-0.41-0.7-0.63l1.25-1.28c0.11,0.1,0.24,0.2,0.38,0.32c0.15,0.12,0.33,0.23,0.53,0.34c0.2,0.11,0.43,0.2,0.7,0.27
			s0.55,0.11,0.87,0.11c0.34,0,0.65-0.05,0.91-0.15s0.49-0.26,0.67-0.47c0.16-0.18,0.28-0.41,0.36-0.67s0.12-0.66,0.12-1.17
			c-0.28,0.21-0.6,0.38-0.97,0.51s-0.78,0.19-1.22,0.19c-0.53,0-1.03-0.1-1.49-0.3c-0.46-0.2-0.86-0.48-1.21-0.84
			c-0.35-0.36-0.62-0.79-0.82-1.28c-0.2-0.49-0.3-1.04-0.3-1.63c0-0.59,0.1-1.13,0.3-1.62c0.2-0.5,0.47-0.92,0.81-1.28
			c0.34-0.36,0.74-0.63,1.2-0.83c0.46-0.2,0.95-0.3,1.47-0.3c0.91,0,1.7,0.28,2.38,0.83v-0.67H858.72z M852.72,591.96
			c0,0.32,0.05,0.61,0.16,0.88s0.25,0.49,0.44,0.68s0.41,0.33,0.66,0.44c0.25,0.11,0.51,0.16,0.79,0.16c0.39,0,0.75-0.08,1.06-0.25
			c0.31-0.17,0.58-0.39,0.81-0.66v-2.48c-0.52-0.61-1.16-0.91-1.9-0.91c-0.28,0-0.54,0.05-0.78,0.16s-0.46,0.26-0.64,0.45
			c-0.18,0.19-0.33,0.42-0.43,0.68S852.72,591.65,852.72,591.96z"/>
		<path class="st14" d="M860.42,585.29c0-0.36,0.13-0.67,0.38-0.91c0.26-0.25,0.57-0.37,0.93-0.37s0.67,0.12,0.93,0.37
			c0.26,0.25,0.38,0.55,0.38,0.91c0,0.36-0.13,0.67-0.38,0.91c-0.26,0.25-0.57,0.37-0.93,0.37s-0.67-0.12-0.93-0.37
			C860.55,585.96,860.42,585.65,860.42,585.29z M862.77,595.85h-2.08v-7.76h2.08V595.85z"/>
		<path class="st14" d="M867.73,593.16c0,0.41,0.07,0.68,0.21,0.82c0.16,0.16,0.4,0.24,0.72,0.24c0.18,0,0.35-0.02,0.5-0.07
			c0.15-0.05,0.31-0.11,0.46-0.18l0.67,1.47c-0.27,0.18-0.56,0.32-0.87,0.42s-0.67,0.15-1.06,0.15c-0.37,0-0.75-0.06-1.12-0.18
			c-0.37-0.12-0.7-0.33-0.98-0.64c-0.19-0.22-0.34-0.49-0.45-0.81c-0.11-0.31-0.16-0.71-0.16-1.19v-3.42h-1.84v-1.68h1.84v-2.48
			h2.08v2.48h2.32v1.68h-2.32V593.16z"/>
		<path class="st14" d="M878.84,588.09v7.76h-1.92v-0.67c-0.3,0.25-0.64,0.45-1.03,0.6c-0.39,0.15-0.83,0.23-1.32,0.23
			c-0.53,0-1.03-0.1-1.49-0.3c-0.46-0.2-0.86-0.48-1.21-0.84c-0.35-0.36-0.62-0.79-0.82-1.28c-0.2-0.49-0.3-1.04-0.3-1.63
			c0-0.59,0.1-1.13,0.3-1.62c0.2-0.5,0.47-0.92,0.81-1.28c0.34-0.36,0.74-0.63,1.2-0.83c0.46-0.2,0.95-0.3,1.47-0.3
			c0.91,0,1.7,0.28,2.38,0.83v-0.67H878.84z M872.84,591.96c0,0.32,0.05,0.61,0.16,0.88s0.25,0.49,0.44,0.68s0.41,0.33,0.66,0.44
			c0.25,0.11,0.51,0.16,0.79,0.16c0.39,0,0.75-0.08,1.06-0.25c0.31-0.17,0.58-0.39,0.81-0.66v-2.48c-0.52-0.61-1.16-0.91-1.9-0.91
			c-0.28,0-0.54,0.05-0.78,0.16s-0.46,0.26-0.64,0.45c-0.18,0.19-0.33,0.42-0.43,0.68S872.84,591.65,872.84,591.96z"/>
		<path class="st14" d="M882.89,595.85h-2.08v-11.36h2.08V595.85z"/>
		<path class="st14" d="M896.84,588.63c0.03,0.1,0.07,0.23,0.1,0.39c0.04,0.17,0.07,0.35,0.1,0.54s0.06,0.41,0.09,0.63
			c0.03,0.22,0.04,0.45,0.04,0.67c0,0.54-0.06,1.06-0.17,1.54c-0.11,0.49-0.29,0.93-0.52,1.32l1.84,2.11h-2.59l-0.59-0.67
			c-0.46,0.3-0.94,0.51-1.43,0.64s-1.06,0.19-1.7,0.19c-0.54,0-1.07-0.09-1.57-0.26c-0.5-0.17-0.94-0.42-1.33-0.74
			c-0.38-0.32-0.69-0.71-0.92-1.16s-0.34-0.96-0.34-1.51c0-0.37,0.05-0.72,0.16-1.04c0.11-0.32,0.25-0.62,0.44-0.89
			c0.19-0.27,0.4-0.52,0.64-0.74c0.24-0.22,0.49-0.43,0.76-0.61c-0.28-0.36-0.49-0.72-0.65-1.06c-0.16-0.35-0.23-0.71-0.23-1.08
			c0-0.34,0.07-0.66,0.22-0.96c0.14-0.3,0.34-0.56,0.59-0.78c0.25-0.22,0.54-0.39,0.86-0.51c0.33-0.12,0.66-0.18,1.02-0.18
			c0.38,0,0.74,0.07,1.07,0.2c0.33,0.13,0.62,0.32,0.86,0.55c0.24,0.24,0.43,0.51,0.56,0.83c0.13,0.32,0.2,0.67,0.2,1.04
			c0,0.55-0.15,1.03-0.44,1.42c-0.29,0.39-0.64,0.75-1.03,1.06l2.14,2.46c0.05-0.18,0.09-0.37,0.12-0.58
			c0.03-0.2,0.04-0.41,0.04-0.62c0-0.34-0.02-0.67-0.07-0.98c-0.05-0.31-0.1-0.59-0.15-0.83L896.84,588.63z M891.11,590.5
			c-0.34,0.19-0.62,0.44-0.85,0.75c-0.22,0.31-0.34,0.68-0.34,1.12c0,0.51,0.2,0.94,0.59,1.28c0.39,0.34,0.93,0.51,1.62,0.51
			c0.31,0,0.62-0.04,0.92-0.11c0.3-0.08,0.57-0.19,0.81-0.34L891.11,590.5z M892.3,587.06c0-0.2-0.06-0.38-0.18-0.52
			c-0.12-0.14-0.28-0.22-0.48-0.22c-0.18,0-0.33,0.07-0.46,0.22c-0.12,0.14-0.18,0.32-0.18,0.52c0,0.19,0.06,0.38,0.18,0.58
			c0.12,0.19,0.25,0.37,0.4,0.54c0.21-0.18,0.39-0.36,0.52-0.54S892.3,587.27,892.3,587.06z"/>
		<path class="st14" d="M831.64,611.85l4.64-11.2h1.6l4.64,11.2h-2.29l-1.02-2.48h-4.32l-1.02,2.48H831.64z M835.69,607.45h2.74
			l-1.34-3.44L835.69,607.45z"/>
		<path class="st14" d="M843.43,611.85v-7.76h1.92v0.69c0.31-0.27,0.66-0.47,1.06-0.62c0.4-0.15,0.82-0.22,1.26-0.22
			c0.53,0,1.03,0.11,1.5,0.32c0.46,0.21,0.85,0.51,1.16,0.88c0.26,0.31,0.45,0.68,0.58,1.11c0.13,0.43,0.2,0.98,0.2,1.66v3.95h-2.08
			v-4.14c0-0.38-0.04-0.68-0.12-0.9s-0.2-0.4-0.34-0.55c-0.29-0.29-0.68-0.43-1.17-0.43c-0.22,0-0.43,0.03-0.63,0.1
			c-0.2,0.06-0.38,0.14-0.54,0.24c-0.16,0.1-0.3,0.2-0.42,0.31c-0.12,0.11-0.22,0.22-0.3,0.31v5.07H843.43z"/>
		<path class="st14" d="M860.55,604.09v7.76h-1.92v-0.67c-0.3,0.25-0.64,0.45-1.03,0.6c-0.39,0.15-0.83,0.23-1.32,0.23
			c-0.53,0-1.03-0.1-1.49-0.3c-0.46-0.2-0.86-0.48-1.21-0.84c-0.35-0.36-0.62-0.79-0.82-1.28c-0.2-0.49-0.3-1.04-0.3-1.63
			c0-0.59,0.1-1.13,0.3-1.62c0.2-0.5,0.47-0.92,0.81-1.28c0.34-0.36,0.74-0.63,1.2-0.83c0.46-0.2,0.95-0.3,1.47-0.3
			c0.91,0,1.7,0.28,2.38,0.83v-0.67H860.55z M854.55,607.96c0,0.32,0.05,0.61,0.16,0.88s0.25,0.49,0.44,0.68s0.41,0.33,0.66,0.44
			c0.25,0.11,0.51,0.16,0.79,0.16c0.39,0,0.75-0.08,1.06-0.25c0.31-0.17,0.58-0.39,0.81-0.66v-2.48c-0.52-0.61-1.16-0.91-1.9-0.91
			c-0.28,0-0.54,0.05-0.78,0.16s-0.46,0.26-0.64,0.45c-0.18,0.19-0.33,0.42-0.43,0.68S854.55,607.65,854.55,607.96z"/>
		<path class="st14" d="M864.59,611.85h-2.08v-11.36h2.08V611.85z"/>
		<path class="st14" d="M867.1,615.45l2-4.3l-3.55-7.06h2.22l2.4,4.83l2.19-4.83h2.14l-5.26,11.36H867.1z"/>
		<path class="st14" d="M878.93,609.16c0,0.41,0.07,0.68,0.21,0.82c0.16,0.16,0.4,0.24,0.72,0.24c0.18,0,0.35-0.02,0.5-0.07
			c0.15-0.05,0.31-0.11,0.46-0.18l0.67,1.47c-0.27,0.18-0.56,0.32-0.87,0.42s-0.67,0.15-1.06,0.15c-0.37,0-0.75-0.06-1.12-0.18
			c-0.37-0.12-0.7-0.33-0.98-0.64c-0.19-0.22-0.34-0.49-0.45-0.81c-0.11-0.31-0.16-0.71-0.16-1.19v-3.42h-1.84v-1.68h1.84v-2.48
			h2.08v2.48h2.32v1.68h-2.32V609.16z"/>
		<path class="st14" d="M882.28,601.29c0-0.36,0.13-0.67,0.38-0.91c0.26-0.25,0.57-0.37,0.93-0.37s0.67,0.12,0.93,0.37
			c0.26,0.25,0.38,0.55,0.38,0.91c0,0.36-0.13,0.67-0.38,0.91c-0.26,0.25-0.57,0.37-0.93,0.37s-0.67-0.12-0.93-0.37
			C882.41,601.96,882.28,601.65,882.28,601.29z M884.64,611.85h-2.08v-7.76h2.08V611.85z"/>
		<path class="st14" d="M893.67,610.26c-0.41,0.57-0.9,1-1.49,1.3c-0.59,0.3-1.25,0.45-1.98,0.45c-0.6,0-1.15-0.11-1.65-0.32
			c-0.5-0.21-0.94-0.5-1.3-0.86c-0.37-0.36-0.66-0.79-0.86-1.28c-0.21-0.49-0.31-1.01-0.31-1.57s0.1-1.08,0.31-1.57
			c0.21-0.49,0.5-0.92,0.86-1.29c0.37-0.37,0.8-0.66,1.3-0.87c0.5-0.21,1.04-0.32,1.63-0.32c0.64,0,1.23,0.13,1.78,0.39
			c0.55,0.26,1.04,0.65,1.46,1.16l-1.33,1.2c-0.26-0.25-0.53-0.45-0.82-0.6c-0.29-0.15-0.62-0.23-0.99-0.23
			c-0.29,0-0.56,0.05-0.82,0.16c-0.26,0.11-0.49,0.25-0.68,0.44c-0.19,0.19-0.35,0.41-0.46,0.67c-0.12,0.26-0.18,0.55-0.18,0.86
			s0.05,0.59,0.16,0.85s0.25,0.48,0.44,0.66s0.41,0.33,0.67,0.44c0.26,0.11,0.55,0.16,0.87,0.16c0.45,0,0.84-0.1,1.18-0.3
			c0.34-0.2,0.6-0.41,0.79-0.63L893.67,610.26z"/>
		<path class="st14" d="M895.28,609.53c0.27,0.2,0.59,0.37,0.97,0.51c0.38,0.14,0.77,0.21,1.16,0.21c0.28,0,0.51-0.06,0.7-0.18
			s0.29-0.28,0.29-0.47c0-0.13-0.04-0.24-0.13-0.34c-0.09-0.1-0.2-0.18-0.34-0.26c-0.14-0.07-0.3-0.14-0.49-0.21
			c-0.19-0.06-0.38-0.13-0.58-0.21c-0.26-0.1-0.52-0.2-0.78-0.31s-0.51-0.25-0.72-0.42c-0.21-0.17-0.39-0.38-0.52-0.62
			c-0.13-0.24-0.2-0.54-0.2-0.89c0-0.37,0.08-0.71,0.25-1.01c0.17-0.3,0.39-0.55,0.66-0.76c0.28-0.21,0.59-0.37,0.95-0.48
			c0.36-0.11,0.73-0.17,1.11-0.17c0.51,0,1,0.08,1.46,0.25c0.46,0.17,0.84,0.37,1.13,0.6l-0.93,1.41c-0.21-0.14-0.45-0.26-0.7-0.35
			c-0.26-0.1-0.52-0.14-0.8-0.14c-0.29,0-0.54,0.05-0.74,0.14c-0.21,0.09-0.31,0.24-0.31,0.44c0,0.12,0.05,0.22,0.14,0.3
			s0.23,0.15,0.39,0.22c0.17,0.07,0.35,0.14,0.56,0.21s0.42,0.14,0.65,0.22c0.25,0.1,0.49,0.21,0.73,0.33
			c0.24,0.12,0.46,0.28,0.65,0.46c0.19,0.18,0.35,0.4,0.46,0.66c0.12,0.26,0.18,0.57,0.18,0.93c0,0.39-0.09,0.74-0.26,1.04
			c-0.18,0.3-0.41,0.55-0.69,0.76s-0.61,0.37-0.97,0.47c-0.36,0.11-0.74,0.16-1.12,0.16c-0.55,0-1.1-0.09-1.64-0.26
			c-0.54-0.18-1.05-0.46-1.53-0.86L895.28,609.53z"/>
	</g>
	<g>
		<path class="st14" d="M941.02,650.5l3.9-5.74h1.6v11.2h-2.13v-6.88l-3.18,4.72h-0.42l-3.18-4.72v6.88h-2.13v-11.2h1.6
			L941.02,650.5z"/>
		<path class="st14" d="M956.26,648.2v7.76h-1.92v-0.67c-0.3,0.25-0.64,0.45-1.03,0.6c-0.39,0.15-0.83,0.23-1.32,0.23
			c-0.53,0-1.03-0.1-1.49-0.3s-0.86-0.48-1.21-0.84s-0.62-0.79-0.82-1.28c-0.2-0.49-0.3-1.03-0.3-1.63c0-0.59,0.1-1.13,0.3-1.62
			c0.2-0.5,0.47-0.92,0.81-1.28c0.34-0.36,0.74-0.63,1.2-0.83c0.46-0.2,0.95-0.3,1.47-0.3c0.91,0,1.7,0.28,2.38,0.83v-0.67H956.26z
			 M950.26,652.07c0,0.32,0.05,0.61,0.16,0.88s0.25,0.49,0.44,0.68c0.19,0.19,0.41,0.33,0.66,0.44c0.25,0.11,0.51,0.16,0.79,0.16
			c0.39,0,0.75-0.08,1.06-0.25s0.58-0.39,0.81-0.66v-2.48c-0.52-0.61-1.16-0.91-1.9-0.91c-0.28,0-0.54,0.05-0.78,0.16
			c-0.25,0.11-0.46,0.26-0.64,0.45c-0.18,0.19-0.33,0.42-0.43,0.68C950.31,651.47,950.26,651.76,950.26,652.07z"/>
		<path class="st14" d="M963.11,650.02c-0.11-0.02-0.22-0.04-0.33-0.04c-0.11-0.01-0.24-0.01-0.39-0.01c-0.38,0-0.77,0.09-1.14,0.26
			c-0.38,0.18-0.69,0.46-0.94,0.84v4.88h-2.08v-7.76h2v0.78c0.23-0.29,0.55-0.51,0.94-0.66s0.83-0.23,1.31-0.23
			c0.21,0,0.42,0.02,0.62,0.06V650.02z"/>
		<path class="st14" d="M968.25,651.73l3.74,4.22h-2.74l-3.02-3.41v3.41h-2.08V644.6h2.08v6.46l2.82-2.86h2.7L968.25,651.73z"/>
		<path class="st14" d="M979.18,654.72c-0.39,0.45-0.88,0.79-1.45,1.03c-0.57,0.24-1.17,0.36-1.8,0.36c-0.58,0-1.11-0.1-1.59-0.29
			c-0.49-0.19-0.91-0.46-1.26-0.82c-0.36-0.35-0.64-0.78-0.84-1.27c-0.2-0.5-0.3-1.05-0.3-1.66c0-0.54,0.08-1.06,0.26-1.54
			c0.17-0.49,0.42-0.91,0.74-1.29c0.33-0.37,0.72-0.67,1.19-0.89s1-0.33,1.58-0.33c0.55,0,1.06,0.11,1.51,0.32
			c0.45,0.21,0.84,0.5,1.16,0.86c0.32,0.36,0.57,0.78,0.74,1.26c0.17,0.48,0.26,0.99,0.26,1.54c0,0.22-0.02,0.42-0.05,0.59h-5.39
			c0.03,0.28,0.11,0.52,0.22,0.74c0.12,0.21,0.27,0.4,0.46,0.55c0.19,0.15,0.4,0.27,0.65,0.35c0.25,0.08,0.51,0.12,0.78,0.12
			c0.45,0,0.84-0.09,1.18-0.28s0.61-0.38,0.81-0.57L979.18,654.72z M977.3,651.16c-0.03-0.37-0.19-0.7-0.46-0.98
			c-0.28-0.28-0.65-0.42-1.12-0.42c-0.48,0-0.87,0.14-1.18,0.42c-0.3,0.28-0.48,0.61-0.54,0.98H977.3z"/>
		<path class="st14" d="M983.84,653.27c0,0.41,0.07,0.68,0.21,0.82c0.16,0.16,0.4,0.24,0.72,0.24c0.18,0,0.35-0.02,0.5-0.07
			c0.15-0.05,0.31-0.11,0.46-0.18l0.67,1.47c-0.27,0.18-0.56,0.32-0.87,0.42c-0.31,0.1-0.67,0.15-1.06,0.15
			c-0.37,0-0.75-0.06-1.12-0.18c-0.37-0.12-0.7-0.33-0.98-0.64c-0.19-0.22-0.34-0.49-0.45-0.81c-0.11-0.31-0.16-0.71-0.16-1.19
			v-3.42h-1.84v-1.68h1.84v-2.48h2.08v2.48h2.32v1.68h-2.32V653.27z"/>
		<path class="st14" d="M936.94,669.11c0.35,0.31,0.77,0.57,1.24,0.78s0.97,0.31,1.48,0.31c0.21,0,0.42-0.03,0.63-0.09
			s0.39-0.15,0.55-0.27c0.16-0.12,0.29-0.27,0.39-0.46c0.1-0.18,0.15-0.39,0.15-0.64c0-0.23-0.06-0.43-0.18-0.6
			c-0.12-0.17-0.28-0.31-0.48-0.45s-0.43-0.25-0.69-0.36c-0.26-0.11-0.54-0.21-0.82-0.32c-0.25-0.09-0.49-0.18-0.72-0.28
			s-0.46-0.22-0.67-0.34c-0.45-0.26-0.82-0.59-1.11-1.01c-0.29-0.42-0.44-0.94-0.44-1.58c0-0.51,0.1-0.96,0.3-1.36
			c0.2-0.39,0.47-0.73,0.81-1c0.34-0.27,0.73-0.48,1.18-0.62c0.45-0.14,0.92-0.22,1.41-0.22c0.58,0,1.14,0.09,1.69,0.28
			c0.55,0.19,1.06,0.47,1.54,0.84l-1.07,1.52c-0.3-0.21-0.62-0.39-0.98-0.52c-0.35-0.13-0.73-0.2-1.12-0.2
			c-0.54,0-0.95,0.12-1.21,0.37c-0.26,0.25-0.39,0.52-0.39,0.83c0,0.22,0.07,0.41,0.2,0.57c0.13,0.16,0.31,0.29,0.53,0.42
			c0.22,0.12,0.47,0.24,0.75,0.34c0.28,0.11,0.57,0.22,0.87,0.35c0.19,0.08,0.38,0.17,0.57,0.26c0.19,0.09,0.37,0.18,0.55,0.29
			c0.46,0.27,0.85,0.62,1.17,1.06c0.32,0.44,0.48,1.02,0.48,1.72c0,0.5-0.1,0.96-0.3,1.37c-0.2,0.41-0.47,0.77-0.81,1.07
			c-0.34,0.3-0.75,0.54-1.22,0.7c-0.47,0.17-0.98,0.25-1.54,0.25c-1.56,0-2.89-0.55-3.98-1.65L936.94,669.11z"/>
		<path class="st14" d="M952.38,664.2v7.76h-1.92v-0.69c-0.3,0.27-0.64,0.47-1.02,0.62c-0.38,0.15-0.78,0.22-1.21,0.22
			c-0.53,0-1.03-0.11-1.48-0.33s-0.83-0.51-1.13-0.89c-0.25-0.31-0.43-0.67-0.57-1.1c-0.13-0.42-0.2-0.92-0.2-1.5v-4.11h2.08v4.22
			c0,0.35,0.04,0.63,0.1,0.82s0.16,0.37,0.28,0.5c0.16,0.18,0.34,0.31,0.55,0.38s0.41,0.1,0.62,0.1c0.22,0,0.43-0.03,0.62-0.1
			c0.19-0.06,0.36-0.14,0.51-0.24c0.15-0.1,0.29-0.2,0.4-0.31c0.11-0.11,0.21-0.22,0.28-0.31v-5.07H952.38z"/>
		<path class="st14" d="M956.27,664.2v0.67c0.68-0.55,1.48-0.83,2.38-0.83c0.52,0,1.01,0.1,1.47,0.3c0.46,0.2,0.86,0.47,1.2,0.83
			c0.34,0.36,0.61,0.78,0.81,1.28s0.3,1.04,0.3,1.62c0,0.6-0.1,1.14-0.3,1.63c-0.2,0.49-0.47,0.92-0.82,1.28s-0.75,0.64-1.22,0.84
			s-0.96,0.3-1.48,0.3c-0.45,0-0.86-0.06-1.22-0.19c-0.37-0.13-0.69-0.3-0.97-0.51v4.14h-2.08V664.2H956.27z M960.35,668.07
			c0-0.31-0.05-0.59-0.16-0.86c-0.11-0.26-0.25-0.49-0.43-0.68s-0.39-0.34-0.64-0.45c-0.25-0.11-0.51-0.16-0.78-0.16
			c-0.75,0-1.38,0.3-1.9,0.91v2.48c0.22,0.28,0.49,0.5,0.81,0.66c0.32,0.17,0.67,0.25,1.06,0.25c0.28,0,0.54-0.05,0.79-0.16
			s0.47-0.25,0.66-0.44c0.19-0.19,0.33-0.41,0.44-0.68S960.35,668.39,960.35,668.07z"/>
		<path class="st14" d="M965.85,664.2v0.67c0.68-0.55,1.48-0.83,2.38-0.83c0.52,0,1.01,0.1,1.47,0.3c0.46,0.2,0.86,0.47,1.2,0.83
			c0.34,0.36,0.61,0.78,0.81,1.28s0.3,1.04,0.3,1.62c0,0.6-0.1,1.14-0.3,1.63c-0.2,0.49-0.47,0.92-0.82,1.28s-0.75,0.64-1.22,0.84
			s-0.96,0.3-1.48,0.3c-0.45,0-0.86-0.06-1.22-0.19c-0.37-0.13-0.69-0.3-0.97-0.51v4.14h-2.08V664.2H965.85z M969.93,668.07
			c0-0.31-0.05-0.59-0.16-0.86c-0.11-0.26-0.25-0.49-0.43-0.68s-0.39-0.34-0.64-0.45c-0.25-0.11-0.51-0.16-0.78-0.16
			c-0.75,0-1.38,0.3-1.9,0.91v2.48c0.22,0.28,0.49,0.5,0.81,0.66c0.32,0.17,0.67,0.25,1.06,0.25c0.28,0,0.54-0.05,0.79-0.16
			s0.47-0.25,0.66-0.44c0.19-0.19,0.33-0.41,0.44-0.68S969.93,668.39,969.93,668.07z"/>
		<path class="st14" d="M975.59,671.96h-2.08V660.6h2.08V671.96z"/>
		<path class="st14" d="M978.1,675.56l2-4.3l-3.55-7.06h2.22l2.4,4.83l2.19-4.83h2.14l-5.26,11.36H978.1z"/>
	</g>
	<circle class="st14" cx="960.47" cy="262.32" r="22.31"/>
	<path class="st15" d="M960.47,241.88v40.88c11.29,0,20.44-9.15,20.44-20.44C980.91,251.04,971.76,241.88,960.47,241.88z"/>
	<circle class="st14" cx="960.47" cy="202.49" r="22.31"/>
	<path class="st16" d="M960.47,182.05v20.44h-20.44c0,11.29,9.15,20.44,20.44,20.44c5.64,0,10.75-2.29,14.45-5.99
		c0.92-0.92,1.76-1.94,2.5-3.03c0.37-0.54,0.71-1.11,1.02-1.69c0.63-1.16,1.15-2.38,1.55-3.66c0.6-1.92,0.92-3.96,0.92-6.08
		C980.91,191.2,971.76,182.05,960.47,182.05z"/>
	<circle class="st14" cx="960.47" cy="322.81" r="22.31"/>
	<g>
		<path class="st15" d="M980.91,322.81c0-11.29-9.15-20.44-20.44-20.44v20.44H980.91z"/>
	</g>
	<g>
		<path class="st14" d="M949.18,206.15h1.21v5.22h2.66v1.08h-3.87V206.15z"/>
		<path class="st14" d="M953.45,212.45l2.61-6.3h0.9l2.61,6.3h-1.29l-0.58-1.4h-2.43l-0.58,1.4H953.45z M955.72,209.97h1.54
			l-0.76-1.94L955.72,209.97z"/>
		<path class="st14" d="M963.71,206.15v1.08h-1.67v5.22h-1.22v-5.22h-1.67v-1.08H963.71z"/>
		<path class="st14" d="M965.68,207.23v1.31h2.03v1.08h-2.03v1.75h2.66v1.08h-3.87v-6.3h3.78v1.08H965.68z"/>
		<path class="st14" d="M973.72,207.88c0,0.41-0.11,0.76-0.33,1.07c-0.22,0.3-0.53,0.51-0.94,0.63l2.17,2.86h-1.46l-2.09-2.79h-0.46
			v2.79h-1.21v-6.3h2.4c0.38,0,0.7,0.06,0.95,0.19c0.26,0.13,0.46,0.3,0.62,0.51c0.11,0.14,0.19,0.3,0.25,0.48
			C973.69,207.51,973.72,207.69,973.72,207.88z M971.61,208.62c0.2,0,0.36-0.02,0.47-0.07c0.11-0.04,0.19-0.11,0.26-0.18
			c0.11-0.14,0.16-0.29,0.16-0.46c0-0.16-0.05-0.31-0.16-0.45c-0.07-0.08-0.15-0.14-0.26-0.18c-0.11-0.04-0.26-0.07-0.47-0.07h-1
			v1.41H971.61z"/>
	</g>
	<g>
		<path class="st14" d="M966.08,262.96l2.2-3.23h0.9v6.3h-1.2v-3.87l-1.79,2.66h-0.23l-1.79-2.66v3.87h-1.2v-6.3h0.9L966.08,262.96z
			"/>
		<path class="st14" d="M970.58,259.73h1.21v6.3h-1.21V259.73z"/>
		<path class="st14" d="M975.36,259.73c0.5,0,0.93,0.05,1.27,0.15c0.34,0.1,0.64,0.25,0.9,0.44c0.39,0.29,0.7,0.65,0.92,1.1
			s0.33,0.93,0.33,1.46s-0.11,1.01-0.33,1.46s-0.53,0.81-0.92,1.1c-0.26,0.19-0.56,0.34-0.9,0.44c-0.34,0.1-0.76,0.15-1.27,0.15
			h-2.16v-6.3H975.36z M977.57,262.88c0-0.26-0.04-0.51-0.12-0.75c-0.08-0.23-0.19-0.44-0.34-0.62c-0.17-0.22-0.39-0.39-0.65-0.52
			c-0.26-0.12-0.58-0.18-0.96-0.18h-1.08v4.14h1.08c0.38,0,0.7-0.06,0.96-0.18c0.26-0.12,0.48-0.3,0.65-0.52
			c0.14-0.18,0.26-0.39,0.34-0.62C977.53,263.39,977.57,263.15,977.57,262.88z"/>
	</g>
	<g>
		<path class="st15" d="M949.07,328.65v1.31h2.03v1.08h-2.03v1.75h2.66v1.08h-3.87v-6.3h3.78v1.08H949.07z"/>
		<path class="st15" d="M952.22,333.87l2.61-6.3h0.9l2.61,6.3h-1.29l-0.58-1.4h-2.43l-0.58,1.4H952.22z M954.5,331.39h1.54
			l-0.76-1.94L954.5,331.39z"/>
		<path class="st15" d="M963.34,329.3c0,0.41-0.11,0.76-0.33,1.07c-0.22,0.3-0.53,0.51-0.94,0.63l2.17,2.86h-1.46l-2.09-2.79h-0.46
			v2.79h-1.21v-6.3h2.4c0.38,0,0.7,0.06,0.95,0.19c0.26,0.13,0.46,0.3,0.62,0.51c0.11,0.14,0.19,0.3,0.25,0.48
			C963.31,328.93,963.34,329.11,963.34,329.3z M961.23,330.04c0.2,0,0.36-0.02,0.47-0.07c0.11-0.04,0.19-0.11,0.26-0.18
			c0.11-0.14,0.16-0.29,0.16-0.46c0-0.16-0.05-0.31-0.16-0.45c-0.07-0.08-0.15-0.14-0.26-0.18c-0.11-0.04-0.26-0.07-0.47-0.07h-1
			v1.41H961.23z"/>
		<path class="st15" d="M964.83,327.57h1.21v5.22h2.66v1.08h-3.87V327.57z"/>
		<path class="st15" d="M971.5,331.01v2.85h-1.21v-2.85l-2.16-3.45h1.39l1.4,2.24l1.39-2.24h1.36L971.5,331.01z"/>
	</g>
</g>
</svg>
